<?xml version="1.0" encoding="UTF-8"?><svg xmlns="http://www.w3.org/2000/svg" xmlns:xlink="http://www.w3.org/1999/xlink" viewBox="0 0 324.41 220.36"><defs><style>.cls-1{filter:url(#drop-shadow-1);}.cls-2{filter:url(#drop-shadow-3);}.cls-3{filter:url(#drop-shadow-2);}.cls-4{fill:#e07e27;}.cls-5{fill:#231f20;}.cls-6{fill:#94b0be;}.cls-7,.cls-8,.cls-9,.cls-10,.cls-11{fill:none;}.cls-7,.cls-9{stroke:#fff;stroke-linejoin:round;stroke-width:.5px;}.cls-8{stroke-width:1.33px;}.cls-8,.cls-9,.cls-10{stroke-linecap:round;}.cls-8,.cls-10{stroke:#939598;}.cls-8,.cls-10,.cls-11{stroke-miterlimit:10;}.cls-12{fill:#007dc5;}.cls-10{stroke-width:2.13px;}.cls-13{fill:#009464;}.cls-14{fill:#fff;}.cls-11{stroke:#231f20;stroke-width:2px;}.cls-15{fill:#a89770;}.cls-16{fill:#939598;}.cls-17{fill:#a9c0b1;}</style><filter id="drop-shadow-1" x="96.74" y="7.11" width="135.6" height="70.8" filterUnits="userSpaceOnUse"><feOffset dx="5" dy="5"/><feGaussianBlur result="blur" stdDeviation="3"/><feFlood flood-color="#6d6e71" flood-opacity=".75"/><feComposite in2="blur" operator="in"/><feComposite in="SourceGraphic"/></filter><filter id="drop-shadow-2" x="9.77" y="146.49" width="124.08" height="71.04" filterUnits="userSpaceOnUse"><feOffset dx="5" dy="5"/><feGaussianBlur result="blur-2" stdDeviation="3"/><feFlood flood-color="#6d6e71" flood-opacity=".75"/><feComposite in2="blur-2" operator="in"/><feComposite in="SourceGraphic"/></filter><filter id="drop-shadow-3" x="200.09" y="146.49" width="124.32" height="71.04" filterUnits="userSpaceOnUse"><feOffset dx="5" dy="5"/><feGaussianBlur result="blur-3" stdDeviation="3"/><feFlood flood-color="#6d6e71" flood-opacity=".75"/><feComposite in2="blur-3" operator="in"/><feComposite in="SourceGraphic"/></filter></defs><g id="background"><rect class="cls-14" width="320.44" height="220.36"/></g><g id="art"><line class="cls-11" x1="111.81" y1="177.18" x2="209.8" y2="177.18"/><polyline class="cls-11" points="158.36 61.46 250.2 132.57 250.2 155.79"/><polyline class="cls-11" points="158.36 61.46 66.53 132.57 66.53 155.79"/><g class="cls-1"><rect class="cls-12" x="100.83" y="11.24" width="117.33" height="52.62"/></g><g class="cls-3"><rect class="cls-4" x="13.83" y="150.69" width="105.89" height="52.62"/></g><g class="cls-2"><rect class="cls-13" x="204.28" y="150.69" width="105.89" height="52.62"/></g><path class="cls-6" d="M197.96,30.78c-.15,0-.29-.06-.4-.17-.22-.22-.22-.59,0-.81l1.32-1.32c.22-.22.59-.23.81,0,.22.22.22.59,0,.81l-1.32,1.32c-.11.11-.26.17-.4.17Z"/><path class="cls-6" d="M196.98,23.88h-1.86c-.32,0-.57-.26-.57-.57s.26-.57.57-.57h1.86c.32,0,.57.26.57.57s-.26.57-.57.57Z"/><path class="cls-6" d="M199.31,18.31c-.15,0-.29-.06-.4-.17l-1.32-1.32c-.22-.22-.22-.59,0-.81.22-.22.59-.22.81,0l1.32,1.32c.22.22.22.59,0,.81-.11.11-.26.17-.4.17Z"/><path class="cls-6" d="M204.89,16.01c-.32,0-.57-.26-.57-.57v-1.86c0-.32.26-.57.57-.57s.57.26.57.57v1.86c0,.32-.26.57-.57.57Z"/><path class="cls-6" d="M210.46,18.34c-.15,0-.29-.06-.4-.17-.22-.22-.23-.59,0-.81l1.31-1.32c.22-.22.59-.23.81,0s.23.59,0,.81l-1.31,1.32c-.11.11-.26.17-.41.17Z"/><path class="cls-6" d="M214.62,23.92h-1.86c-.32,0-.57-.26-.57-.57s.26-.57.57-.57h1.86c.32,0,.57.26.57.57s-.26.57-.57.57Z"/><path class="cls-6" d="M211.75,30.81c-.15,0-.29-.06-.41-.17l-1.31-1.32c-.22-.22-.22-.59,0-.81s.59-.22.81,0l1.31,1.32c.22.22.22.59,0,.81-.11.11-.26.17-.4.17Z"/><path class="cls-6" d="M211.72,23.33c0-3.78-3.07-6.85-6.85-6.85s-6.85,3.07-6.85,6.85c0,2.41,1.25,4.52,3.14,5.75v1.31h0c-.59,0-1.07.48-1.07,1.07,0,.44.27.82.65.98-.38.16-.65.54-.65.98s.27.82.65.98c-.38.16-.65.54-.65.98,0,.59.48,1.07,1.07,1.07h1.16c.21,1.18,1.23,2.08,2.47,2.08s2.27-.9,2.48-2.08h.74c.59,0,1.07-.48,1.07-1.07,0-.44-.27-.82-.65-.98.38-.16.65-.54.65-.98s-.27-.82-.65-.98c.38-.16.65-.54.65-.98,0-.59-.48-1.07-1.07-1.07h-.09v-.94c2.25-1.12,3.82-3.43,3.82-6.11ZM204.79,37.39c-.6,0-1.1-.4-1.28-.94h2.57c-.18.54-.68.94-1.29.94Z"/><path class="cls-14" d="M207.56,24.68c-.1,0-.2-.04-.27-.11l-1.11-1.09-.94,1.04c-.07.08-.17.12-.27.13-.11,0-.2-.03-.28-.1l-1.1-1.02-1.01,1.01c-.07.07-.18.11-.28.11-.1,0-.2-.05-.27-.12l-1.14-1.24c-.14-.16-.13-.4.02-.54.16-.14.4-.13.54.02l.87.95.99-.99c.14-.15.38-.15.53,0l1.08,1.01.95-1.05c.07-.08.17-.12.27-.13.11.01.2.04.28.11l1.11,1.09.97-1.07c.14-.16.38-.17.54-.03.16.14.17.38.03.54l-1.24,1.36c-.07.08-.17.12-.27.13h-.01Z"/><path class="cls-14" d="M203.24,30.6c-.21,0-.38-.17-.38-.38v-3.76c0-.21.17-.38.38-.38s.38.17.38.38v3.76c0,.21-.17.38-.38.38Z"/><path class="cls-14" d="M205.84,30.6c-.21,0-.38-.17-.38-.38v-3.76c0-.21.17-.38.38-.38s.38.17.38.38v3.76c0,.21-.17.38-.38.38Z"/><path class="cls-14" d="M204.79,37.39c-.6,0-1.1-.4-1.28-.94h2.57c-.18.54-.68.94-1.29.94Z"/><polygon class="cls-15" points="117.75 160.63 114.55 160.63 114.55 155.87 110.08 155.87 100.83 155.87 98.72 157.98 94.67 157.98 94.67 180.26 112.09 180.26 112.09 178.09 114.55 178.09 114.55 173.14 117.75 173.14 117.75 160.63"/><rect class="cls-7" x="104.05" y="160.63" width="13.7" height="12.65"/><line class="cls-7" x1="104.05" y1="163.86" x2="117.5" y2="163.86"/><polyline class="cls-9" points="112.79 166.64 114.5 168.35 112.76 170.08"/><polyline class="cls-9" points="109.44 166.64 107.72 168.35 109.46 170.08"/><line class="cls-9" x1="111.4" y1="166.64" x2="110.78" y2="170.08"/><line class="cls-9" x1="105.34" y1="162.17" x2="109.46" y2="162.17"/><circle class="cls-14" cx="113.41" cy="162.17" r=".4"/><circle class="cls-14" cx="114.94" cy="162.17" r=".4"/><circle class="cls-14" cx="116.48" cy="162.17" r=".4"/><polyline class="cls-7" points="114.55 173.14 114.55 178.09 96.5 178.09 96.5 160.11 100.83 155.77 114.55 155.87 114.55 160.63"/><polyline class="cls-7" points="96.76 160.18 101.15 160.18 101.15 155.78"/><circle class="cls-17" cx="294.61" cy="161.53" r="4.27"/><polygon class="cls-17" points="300.13 182.55 289.66 182.55 290.88 167 298.88 167 300.13 182.55"/><path class="cls-17" d="M305.91,172.05c-1.02-1.21-4.57-5.18-7.58-5.18h-6.79c-1.3,0-2.28-.16-3.02-.38l2.25-1.32c-.88-.89-1.42-2.11-1.42-3.46,0-.16.03-.3.05-.46l-5.68,3.34c-.93.55-1.27,1.72-.78,2.68.19.38,2.07,3.67,8.6,3.67h6.78c.64.05,2.32,1.38,3.76,2.92-.25.58-.72,1.42-1.62,2.33-.79.8-.78,2.09.02,2.88.4.39.91.59,1.43.59s1.05-.2,1.45-.61c2.61-2.65,2.98-5.17,3.01-5.45.07-.56-.1-1.12-.46-1.55Z"/><path class="cls-17" d="M301.84,161.01v-.28c-.04-.55.14-1.12.63-1.69.35-.42.63-.78.63-1.14,0-.38-.25-.64-.79-.65-.36,0-.79.13-1.08.33l-.37-1.18c.4-.23,1.04-.45,1.81-.45,1.43,0,2.1.79,2.1,1.7,0,.83-.52,1.37-.93,1.83-.39.45-.56.87-.55,1.36v.2h-1.45ZM301.56,162.52c0-.59.4-.99.97-.99s.97.4.98.99c0,.56-.38.99-.98.99s-.97-.42-.97-.99Z"/><path class="cls-8" d="M162.42,86.04c2.34,1.5,3.89,4.12,3.89,7.1,0,4.66-3.78,8.43-8.43,8.43s-8.43-3.78-8.43-8.43"/><line class="cls-10" x1="164.36" y1="99.27" x2="171.55" y2="106.46"/><path class="cls-16" d="M159.01,88.78c-1.33,0-3.2-.24-3.63-2.41-.49-2.45-.54-4.42-.54-4.42h-.66s-.05,1.96-.54,4.42c-.43,2.17-2.31,2.41-3.63,2.41h-2.8v.71h2.8c1.33,0,3.2.24,3.63,2.41.49,2.45.54,4.42.54,4.42h.66s.05-1.96.54-4.42c.43-2.17,2.31-2.41,3.63-2.41h2.8v-.71h-2.8Z"/><path class="cls-16" d="M149.17,83.89c-.53,0-1.29-.1-1.46-.97-.2-.99-.22-1.78-.22-1.78h-.27s-.02.79-.22,1.78c-.17.87-.93.97-1.46.97h-1.13v.29h1.13c.53,0,1.29.1,1.46.97.2.99.22,1.78.22,1.78h.27s.02-.79.22-1.78c.17-.87.93-.97,1.46-.97h1.13v-.29h-1.13Z"/><path class="cls-16" d="M161.14,81.51c-.45,0-1.08-.08-1.23-.81-.17-.83-.18-1.49-.18-1.49h-.22s-.02.66-.18,1.49c-.15.73-.78.81-1.23.81h-.94v.24h.94c.45,0,1.08.08,1.23.81.17.83.18,1.49.18,1.49h.22s.02-.66.18-1.49c.15-.73.78-.81,1.23-.81h.94v-.24h-.94Z"/><polyline class="cls-7" points="112.09 178.18 112.09 180.22 94.67 180.22 94.67 157.98 98.52 157.98"/></g><g id="text"><path class="cls-14" d="M138.79,16.98c0,.38-.28.68-.74.68-.43,0-.71-.31-.71-.68s.29-.68.73-.68.71.3.72.68ZM137.37,22.6v-4.4h1.37v4.4h-1.37Z"/><path class="cls-14" d="M139.84,19.6c0-.55-.02-1.01-.04-1.4h1.19l.06.61h.03c.18-.29.62-.71,1.36-.71.9,0,1.58.6,1.58,1.9v2.6h-1.37v-2.44c0-.57-.2-.95-.69-.95-.38,0-.6.26-.7.51-.04.09-.04.22-.04.34v2.54h-1.37v-3Z"/><path class="cls-14" d="M146.59,17.01v1.19h.98v1.01h-.98v1.59c0,.53.14.77.54.77.19,0,.28,0,.41-.04v1.04c-.16.06-.5.12-.87.12-.44,0-.81-.15-1.04-.38-.25-.26-.38-.68-.38-1.31v-1.8h-.59v-1.01h.59v-.82l1.34-.37Z"/><path class="cls-14" d="M149.37,20.84c.04.57.6.84,1.24.84.47,0,.85-.06,1.22-.19l.18.93c-.45.19-1,.28-1.59.28-1.49,0-2.35-.86-2.35-2.24,0-1.12.69-2.35,2.22-2.35,1.42,0,1.96,1.11,1.96,2.2,0,.23-.03.44-.04.54h-2.84ZM150.98,19.9c0-.33-.14-.89-.77-.89-.58,0-.81.53-.85.89h1.62Z"/><path class="cls-14" d="M153.07,19.6c0-.55-.02-1.01-.04-1.4h1.19l.06.61h.03c.18-.29.62-.71,1.36-.71.9,0,1.58.6,1.58,1.9v2.6h-1.37v-2.44c0-.57-.2-.95-.69-.95-.38,0-.6.26-.7.51-.04.09-.04.22-.04.34v2.54h-1.37v-3Z"/><path class="cls-14" d="M159.82,17.01v1.19h.98v1.01h-.98v1.59c0,.53.14.77.54.77.19,0,.28,0,.41-.04v1.04c-.16.06-.5.12-.87.12-.44,0-.81-.15-1.04-.38-.25-.26-.38-.68-.38-1.31v-1.8h-.59v-1.01h.59v-.82l1.34-.37Z"/><path class="cls-14" d="M167.68,16.21v5.08c0,.5.02,1.02.04,1.31h-1.21l-.05-.64h-.03c-.27.49-.81.74-1.38.74-1.04,0-1.88-.89-1.88-2.26,0-1.49.92-2.35,1.97-2.35.55,0,.96.2,1.16.5h.02v-2.38h1.37ZM166.31,20.06c0-.07,0-.17-.02-.25-.08-.36-.38-.67-.8-.67-.63,0-.95.56-.95,1.25,0,.75.37,1.22.94,1.22.4,0,.72-.27.8-.66.02-.1.03-.21.03-.31v-.58Z"/><path class="cls-14" d="M169.83,20.84c.04.57.6.84,1.24.84.47,0,.85-.06,1.22-.19l.18.93c-.45.19-1,.28-1.59.28-1.5,0-2.35-.86-2.35-2.24,0-1.12.69-2.35,2.22-2.35,1.42,0,1.96,1.11,1.96,2.2,0,.23-.03.44-.04.54h-2.84ZM171.44,19.9c0-.33-.14-.89-.77-.89-.58,0-.81.53-.85.89h1.62Z"/><path class="cls-14" d="M173.53,16.21h1.37v2.51h.02c.26-.38.72-.62,1.33-.62,1.05,0,1.82.87,1.81,2.22,0,1.58-1,2.38-2.01,2.38-.51,0-1.02-.19-1.32-.71h-.02l-.05.61h-1.16c.02-.29.04-.82.04-1.31v-5.08ZM174.9,20.73c0,.09,0,.17.03.24.09.36.41.65.8.65.58,0,.95-.45.95-1.24,0-.68-.31-1.22-.95-1.22-.37,0-.71.28-.8.68-.02.08-.03.16-.03.25v.65Z"/><path class="cls-14" d="M180.44,17.01v1.19h.98v1.01h-.98v1.59c0,.53.13.77.54.77.19,0,.28,0,.41-.04v1.04c-.16.06-.5.12-.87.12-.44,0-.81-.15-1.04-.38-.25-.26-.38-.68-.38-1.31v-1.8h-.58v-1.01h.58v-.82l1.34-.37Z"/><path class="cls-14" d="M130.26,33.96c0,1.01-.21,1.61-.62,2-.43.39-1.04.52-1.59.52s-1.1-.13-1.45-.36l.2-.61c.29.19.74.35,1.28.35.81,0,1.4-.42,1.4-1.53v-.48h-.02c-.23.4-.71.73-1.39.73-1.08,0-1.85-.92-1.85-2.12,0-1.48.96-2.3,1.97-2.3.76,0,1.16.39,1.36.75h.02l.03-.66h.7c-.03.31-.04.67-.04,1.19v2.53ZM129.47,31.96c0-.14,0-.25-.05-.35-.14-.47-.52-.85-1.11-.85-.76,0-1.3.64-1.3,1.65,0,.85.44,1.57,1.29,1.57.5,0,.94-.31,1.1-.81.05-.13.06-.29.06-.42v-.78Z"/><path class="cls-14" d="M135.51,32.39c0,1.61-1.13,2.31-2.17,2.31-1.17,0-2.09-.86-2.09-2.24,0-1.45.96-2.3,2.16-2.3s2.1.91,2.1,2.23ZM132.06,32.43c0,.95.54,1.67,1.31,1.67s1.32-.71,1.32-1.69c0-.74-.37-1.67-1.31-1.67s-1.33.86-1.33,1.68Z"/><path class="cls-14" d="M139.57,33.56c0,.38.02.75.06,1.04h-.71l-.06-.55h-.03c-.24.34-.71.65-1.33.65-.88,0-1.33-.62-1.33-1.25,0-1.05.94-1.63,2.62-1.62v-.09c0-.35-.1-1.01-.99-1-.41,0-.84.12-1.14.32l-.18-.53c.36-.23.89-.38,1.44-.38,1.33,0,1.66.91,1.66,1.77v1.63ZM138.8,32.38c-.86-.02-1.85.13-1.85.98,0,.52.34.76.74.76.58,0,.95-.36,1.07-.73.03-.09.04-.18.04-.25v-.76Z"/><path class="cls-14" d="M140.84,28.21h.79v6.39h-.79v-6.39Z"/><path class="cls-14" d="M142.86,33.8c.24.14.66.31,1.05.31.57,0,.84-.28.84-.65s-.23-.58-.8-.79c-.79-.29-1.16-.71-1.16-1.23,0-.7.58-1.28,1.5-1.28.44,0,.83.12,1.06.27l-.19.58c-.17-.11-.49-.26-.89-.26-.47,0-.72.27-.72.59,0,.36.25.52.82.75.75.28,1.14.66,1.14,1.31,0,.77-.6,1.31-1.62,1.31-.48,0-.92-.13-1.22-.31l.19-.59Z"/><path class="cls-14" d="M145.92,35.72c.2-.54.44-1.5.54-2.16l.88-.09c-.22.77-.61,1.76-.86,2.19l-.56.06Z"/><path class="cls-14" d="M153.31,34.45c-.21.1-.67.25-1.25.25-1.31,0-2.17-.89-2.17-2.22s.92-2.32,2.34-2.32c.47,0,.88.12,1.1.23l-.18.6c-.19-.1-.49-.21-.92-.21-1,0-1.54.75-1.54,1.65,0,1.01.65,1.63,1.51,1.63.45,0,.75-.11.97-.21l.14.59Z"/><path class="cls-14" d="M158.12,32.39c0,1.61-1.13,2.31-2.17,2.31-1.17,0-2.09-.86-2.09-2.24,0-1.45.96-2.3,2.16-2.3s2.1.91,2.1,2.23ZM154.68,32.43c0,.95.54,1.67,1.31,1.67s1.32-.71,1.32-1.69c0-.74-.37-1.67-1.31-1.67s-1.33.86-1.33,1.68Z"/><path class="cls-14" d="M159.12,31.42c0-.46,0-.82-.04-1.18h.7l.04.72h.02c.22-.4.72-.81,1.44-.81.6,0,1.54.36,1.54,1.85v2.59h-.79v-2.51c0-.7-.26-1.29-1.01-1.29-.51,0-.92.37-1.06.81-.04.1-.05.23-.05.37v2.62h-.79v-3.18Z"/><path class="cls-14" d="M164.01,33.8c.24.14.66.31,1.05.31.57,0,.84-.28.84-.65s-.23-.58-.8-.79c-.79-.29-1.16-.71-1.16-1.23,0-.7.58-1.28,1.5-1.28.44,0,.83.12,1.06.27l-.19.58c-.17-.11-.49-.26-.89-.26-.47,0-.72.27-.72.59,0,.36.25.52.82.75.75.28,1.14.66,1.14,1.31,0,.77-.6,1.31-1.62,1.31-.48,0-.92-.13-1.22-.31l.19-.59Z"/><path class="cls-14" d="M168.64,29.2v1.04h1.13v.6h-1.13v2.35c0,.54.15.85.59.85.22,0,.34-.02.46-.05l.04.6c-.15.05-.4.11-.7.11-.37,0-.67-.13-.85-.33-.22-.24-.31-.63-.31-1.14v-2.38h-.67v-.6h.67v-.81l.77-.23Z"/><path class="cls-14" d="M170.66,31.6c0-.51,0-.95-.04-1.36h.69l.04.86h.03c.2-.58.68-.95,1.21-.95.08,0,.14,0,.22.02v.75c-.08-.02-.16-.02-.27-.02-.56,0-.95.41-1.06,1.01-.02.11-.03.24-.03.37v2.32h-.79v-3Z"/><path class="cls-14" d="M176.62,33.56c0,.38.02.75.06,1.04h-.71l-.06-.55h-.03c-.24.34-.71.65-1.33.65-.88,0-1.33-.62-1.33-1.25,0-1.05.94-1.63,2.62-1.62v-.09c0-.35-.1-1.01-.99-1-.41,0-.84.12-1.14.32l-.18-.53c.36-.23.89-.38,1.44-.38,1.33,0,1.66.91,1.66,1.77v1.63ZM175.85,32.38c-.86-.02-1.84.13-1.84.98,0,.52.34.76.74.76.58,0,.95-.36,1.07-.73.03-.09.04-.18.04-.25v-.76Z"/><path class="cls-14" d="M178.78,29.02c0,.27-.19.49-.5.49-.29,0-.48-.22-.48-.49s.2-.5.5-.5.49.22.49.5ZM177.9,34.6v-4.36h.79v4.36h-.79Z"/><path class="cls-14" d="M180,31.42c0-.46,0-.82-.04-1.18h.7l.04.72h.02c.22-.4.72-.81,1.44-.81.6,0,1.54.36,1.54,1.85v2.59h-.79v-2.51c0-.7-.26-1.29-1.01-1.29-.51,0-.92.37-1.06.81-.04.1-.05.23-.05.37v2.62h-.79v-3.18Z"/><path class="cls-14" d="M185.91,29.2v1.04h1.13v.6h-1.13v2.35c0,.54.15.85.59.85.22,0,.34-.02.46-.05l.04.6c-.15.05-.4.11-.7.11-.37,0-.67-.13-.86-.33-.22-.24-.31-.63-.31-1.14v-2.38h-.68v-.6h.68v-.81l.77-.23Z"/><path class="cls-14" d="M187.83,33.8c.24.14.66.31,1.05.31.57,0,.84-.28.84-.65s-.22-.58-.8-.79c-.79-.29-1.16-.71-1.16-1.23,0-.7.58-1.28,1.5-1.28.44,0,.83.12,1.06.27l-.19.58c-.17-.11-.49-.26-.89-.26-.47,0-.72.27-.72.59,0,.36.25.52.82.75.75.28,1.14.66,1.14,1.31,0,.77-.6,1.31-1.62,1.31-.48,0-.92-.13-1.22-.31l.19-.59Z"/><path class="cls-14" d="M190.89,35.72c.2-.54.44-1.5.54-2.16l.88-.09c-.22.77-.61,1.76-.86,2.19l-.56.06Z"/><path class="cls-14" d="M115.03,43.8c.24.14.66.31,1.05.31.57,0,.84-.28.84-.65s-.23-.58-.8-.79c-.79-.29-1.16-.71-1.16-1.23,0-.7.58-1.28,1.5-1.28.44,0,.83.12,1.06.27l-.19.58c-.17-.11-.49-.26-.89-.26-.47,0-.72.27-.72.59,0,.36.25.52.82.75.75.28,1.14.66,1.14,1.31,0,.77-.6,1.31-1.62,1.31-.48,0-.92-.13-1.22-.31l.19-.59Z"/><path class="cls-14" d="M118.7,41.67c0-.56-.02-1.01-.04-1.42h.7l.04.75h.02c.32-.53.84-.84,1.55-.84,1.06,0,1.85.89,1.85,2.21,0,1.57-.96,2.34-1.99,2.34-.58,0-1.08-.25-1.34-.68h-.02v2.37h-.78v-4.72ZM119.49,42.83c0,.12,0,.23.04.32.14.55.62.93,1.19.93.84,0,1.32-.68,1.32-1.68,0-.86-.46-1.61-1.3-1.61-.54,0-1.05.38-1.2.97-.03.1-.05.22-.05.31v.76Z"/><path class="cls-14" d="M124.27,42.57c.02,1.07.69,1.51,1.49,1.51.57,0,.92-.1,1.21-.23l.14.57c-.28.13-.77.28-1.46.28-1.34,0-2.14-.89-2.14-2.21s.77-2.34,2.04-2.34c1.43,0,1.8,1.24,1.8,2.04,0,.16,0,.28-.03.37h-3.06ZM126.59,42c0-.5-.21-1.28-1.1-1.28-.81,0-1.15.73-1.22,1.28h2.31Z"/><path class="cls-14" d="M131.44,44.45c-.21.1-.67.25-1.25.25-1.31,0-2.17-.89-2.17-2.22s.92-2.32,2.34-2.32c.47,0,.88.12,1.1.23l-.18.6c-.19-.1-.49-.21-.92-.21-1,0-1.54.75-1.54,1.65,0,1.01.65,1.63,1.51,1.63.45,0,.75-.11.97-.21l.14.59Z"/><path class="cls-14" d="M133.25,39.02c0,.27-.19.49-.5.49-.29,0-.48-.22-.48-.49s.2-.5.5-.5.49.22.49.5ZM132.37,44.6v-4.36h.79v4.36h-.79Z"/><path class="cls-14" d="M134.55,44.6v-3.75h-.6v-.6h.6v-.24c0-1.14.68-1.89,1.9-1.89.41,0,.88.13,1.11.29l-.23.6c-.2-.14-.53-.25-.92-.25-.84,0-1.08.58-1.08,1.28v.22h2.53v4.36h-.79v-3.75h-1.74v3.75h-.78Z"/><path class="cls-14" d="M142.28,44.45c-.21.1-.67.25-1.25.25-1.31,0-2.17-.89-2.17-2.22s.92-2.32,2.34-2.32c.47,0,.88.12,1.1.23l-.18.6c-.19-.1-.49-.21-.92-.21-1,0-1.54.75-1.54,1.65,0,1.01.65,1.63,1.51,1.63.45,0,.75-.11.97-.21l.14.59Z"/><path class="cls-14" d="M146.27,43.56c0,.38.02.75.06,1.04h-.71l-.06-.55h-.03c-.24.34-.71.65-1.33.65-.88,0-1.33-.62-1.33-1.25,0-1.05.94-1.63,2.62-1.62v-.09c0-.35-.1-1.01-.99-1-.41,0-.84.12-1.14.32l-.18-.53c.36-.23.89-.38,1.44-.38,1.33,0,1.66.91,1.66,1.77v1.63ZM145.51,42.38c-.86-.02-1.85.13-1.85.98,0,.52.34.76.74.76.58,0,.95-.36,1.07-.73.03-.09.04-.18.04-.25v-.76Z"/><path class="cls-14" d="M148.47,39.2v1.04h1.13v.6h-1.13v2.35c0,.54.15.85.59.85.22,0,.34-.02.46-.05l.04.6c-.15.05-.4.11-.7.11-.37,0-.67-.13-.85-.33-.22-.24-.31-.63-.31-1.14v-2.38h-.68v-.6h.68v-.81l.77-.23Z"/><path class="cls-14" d="M151.37,39.02c0,.27-.19.49-.5.49-.29,0-.48-.22-.48-.49s.2-.5.5-.5.49.22.49.5ZM150.49,44.6v-4.36h.79v4.36h-.79Z"/><path class="cls-14" d="M156.54,42.39c0,1.61-1.12,2.31-2.17,2.31-1.17,0-2.09-.86-2.09-2.24,0-1.45.96-2.3,2.16-2.3s2.1.91,2.1,2.23ZM153.09,42.43c0,.95.54,1.67,1.31,1.67s1.32-.71,1.32-1.69c0-.74-.37-1.67-1.31-1.67s-1.33.86-1.33,1.68Z"/><path class="cls-14" d="M157.54,41.42c0-.46,0-.82-.04-1.18h.7l.04.72h.02c.22-.4.72-.81,1.44-.81.6,0,1.54.36,1.54,1.85v2.59h-.79v-2.51c0-.7-.26-1.29-1.01-1.29-.51,0-.92.37-1.06.81-.04.1-.05.23-.05.37v2.62h-.79v-3.18Z"/><path class="cls-14" d="M162.43,43.8c.24.14.66.31,1.05.31.57,0,.84-.28.84-.65s-.22-.58-.8-.79c-.79-.29-1.16-.71-1.16-1.23,0-.7.58-1.28,1.5-1.28.44,0,.83.12,1.06.27l-.19.58c-.17-.11-.49-.26-.89-.26-.47,0-.72.27-.72.59,0,.36.25.52.82.75.75.28,1.14.66,1.14,1.31,0,.77-.6,1.31-1.62,1.31-.48,0-.92-.13-1.22-.31l.19-.59Z"/><path class="cls-14" d="M165.49,45.72c.2-.54.44-1.5.54-2.16l.88-.09c-.22.77-.61,1.76-.86,2.19l-.56.06Z"/><path class="cls-14" d="M173.52,38.21v5.27c0,.39.02.83.04,1.13h-.7l-.04-.76h-.03c-.23.49-.76.86-1.47.86-1.05,0-1.87-.89-1.87-2.21,0-1.45.9-2.33,1.95-2.33.67,0,1.12.31,1.31.66h.02v-2.6h.78ZM172.74,42.02c0-.1,0-.23-.04-.33-.12-.5-.55-.91-1.14-.91-.82,0-1.31.72-1.31,1.67,0,.88.44,1.61,1.29,1.61.53,0,1.02-.36,1.16-.95.03-.11.04-.22.04-.34v-.76Z"/><path class="cls-14" d="M175.29,42.57c.02,1.07.69,1.51,1.5,1.51.57,0,.92-.1,1.21-.23l.14.57c-.28.13-.77.28-1.46.28-1.34,0-2.14-.89-2.14-2.21s.77-2.34,2.04-2.34c1.43,0,1.8,1.24,1.8,2.04,0,.16,0,.28-.03.37h-3.06ZM177.61,42c0-.5-.21-1.28-1.1-1.28-.81,0-1.15.73-1.21,1.28h2.31Z"/><path class="cls-14" d="M182.46,44.45c-.21.1-.67.25-1.25.25-1.31,0-2.17-.89-2.17-2.22s.92-2.32,2.34-2.32c.47,0,.88.12,1.1.23l-.18.6c-.19-.1-.49-.21-.92-.21-1,0-1.54.75-1.54,1.65,0,1.01.65,1.63,1.51,1.63.45,0,.75-.11.97-.21l.14.59Z"/><path class="cls-14" d="M184.27,39.02c0,.27-.19.49-.5.49-.29,0-.48-.22-.48-.49s.2-.5.5-.5.49.22.49.5ZM183.39,44.6v-4.36h.79v4.36h-.79Z"/><path class="cls-14" d="M185.38,43.8c.24.14.66.31,1.05.31.57,0,.84-.28.84-.65s-.23-.58-.8-.79c-.79-.29-1.16-.71-1.16-1.23,0-.7.58-1.28,1.5-1.28.44,0,.83.12,1.06.27l-.19.58c-.17-.11-.49-.26-.89-.26-.47,0-.72.27-.72.59,0,.36.25.52.82.75.75.28,1.14.66,1.14,1.31,0,.77-.6,1.31-1.62,1.31-.48,0-.92-.13-1.22-.31l.19-.59Z"/><path class="cls-14" d="M189.94,39.02c0,.27-.19.49-.5.49-.29,0-.48-.22-.48-.49s.2-.5.5-.5.49.22.49.5ZM189.06,44.6v-4.36h.79v4.36h-.79Z"/><path class="cls-14" d="M195.11,42.39c0,1.61-1.12,2.31-2.17,2.31-1.17,0-2.09-.86-2.09-2.24,0-1.45.96-2.3,2.16-2.3s2.1.91,2.1,2.23ZM191.66,42.43c0,.95.54,1.67,1.31,1.67s1.32-.71,1.32-1.69c0-.74-.37-1.67-1.3-1.67s-1.33.86-1.33,1.68Z"/><path class="cls-14" d="M196.1,41.42c0-.46,0-.82-.04-1.18h.7l.04.72h.02c.22-.4.72-.81,1.44-.81.6,0,1.54.36,1.54,1.85v2.59h-.79v-2.51c0-.7-.26-1.29-1.01-1.29-.51,0-.92.37-1.06.81-.04.1-.05.23-.05.37v2.62h-.79v-3.18Z"/><path class="cls-14" d="M200.99,43.8c.24.14.66.31,1.05.31.57,0,.84-.28.84-.65s-.22-.58-.8-.79c-.79-.29-1.16-.71-1.16-1.23,0-.7.58-1.28,1.5-1.28.44,0,.83.12,1.06.27l-.19.58c-.17-.11-.49-.26-.89-.26-.47,0-.72.27-.72.59,0,.36.25.52.82.75.75.28,1.14.66,1.14,1.31,0,.77-.6,1.31-1.62,1.31-.48,0-.92-.13-1.22-.31l.19-.59Z"/><path class="cls-14" d="M108.89,56.6l1.22-6.39h.75l-1.22,6.39h-.75Z"/><path class="cls-14" d="M110.95,56.6l.84-4.36h.74l-.83,4.36h-.75ZM111.92,51.04c0-.29.23-.5.49-.5s.45.2.45.47c0,.3-.22.5-.51.5-.26,0-.42-.2-.42-.47Z"/><path class="cls-14" d="M113.98,52.24l.38,2.48c.06.5.13.83.13,1.07h.03c.1-.23.22-.52.47-1.02l1.32-2.54h.82l-2.42,4.36h-.73l-.76-4.36h.76Z"/><path class="cls-14" d="M120.17,56.36c-.32.18-.86.34-1.44.34-1.15,0-1.66-.79-1.66-1.76,0-1.31.97-2.8,2.38-2.8.83,0,1.28.5,1.28,1.13,0,1.14-1.29,1.44-2.9,1.41-.04.19,0,.59.09.83.17.4.52.59.97.59.51,0,.9-.15,1.17-.3l.11.56ZM119.34,52.73c-.71,0-1.24.69-1.43,1.38,1.18.02,2.1-.14,2.1-.83,0-.35-.27-.55-.67-.55Z"/><path class="cls-14" d="M121.15,55.85c.21.13.58.27.94.27.5,0,.83-.32.83-.71,0-.34-.15-.55-.61-.8-.5-.28-.78-.67-.78-1.12,0-.76.66-1.34,1.58-1.34.4,0,.75.11.91.22l-.21.57c-.15-.09-.43-.2-.76-.2-.45,0-.77.28-.77.66,0,.31.21.51.6.73.49.27.81.66.81,1.14,0,.92-.74,1.43-1.66,1.43-.47,0-.89-.14-1.09-.3l.22-.55Z"/><path class="cls-14" d="M126.1,56.6l.84-4.36h.74l-.83,4.36h-.75ZM127.07,51.04c0-.29.23-.5.49-.5s.45.2.45.47c0,.3-.22.5-.51.5-.26,0-.42-.2-.42-.47Z"/><path class="cls-14" d="M128.17,56.6l.58-3.09c.1-.49.16-.91.21-1.27h.67l-.11.86h.02c.39-.61.98-.95,1.61-.95.52,0,1.11.3,1.11,1.21,0,.2-.04.47-.08.7l-.49,2.55h-.74l.48-2.52c.03-.17.05-.37.05-.56,0-.43-.17-.76-.68-.76s-1.29.64-1.49,1.72l-.4,2.12h-.74Z"/><path class="cls-14" d="M137.75,56.36c-.32.18-.86.34-1.44.34-1.15,0-1.66-.79-1.66-1.76,0-1.31.97-2.8,2.38-2.8.83,0,1.28.5,1.28,1.13,0,1.14-1.29,1.44-2.9,1.41-.04.19,0,.59.09.83.17.4.52.59.97.59.51,0,.9-.15,1.17-.3l.11.56ZM136.92,52.73c-.71,0-1.24.69-1.43,1.38,1.18.02,2.1-.14,2.1-.83,0-.35-.27-.55-.67-.55Z"/><path class="cls-14" d="M139.81,52.24l.42.95c.13.28.21.5.3.69h.02c.17-.24.27-.4.48-.66l.81-.99h.86l-1.84,2.12,1.04,2.23h-.82l-.43-.98c-.15-.32-.22-.5-.31-.77h-.03c-.13.21-.26.4-.45.67l-.88,1.09h-.86l1.91-2.24-1.01-2.12h.81Z"/><path class="cls-14" d="M144.67,51.2l-.2,1.04h1.04l-.12.59h-1.04l-.4,2.12c-.05.24-.09.47-.09.69,0,.26.13.42.41.42.14,0,.25,0,.35-.04l-.04.58c-.13.05-.36.08-.58.08-.66,0-.92-.4-.92-.85,0-.25.04-.5.1-.81l.42-2.21h-.62l.11-.59h.62l.15-.81.78-.23Z"/><path class="cls-14" d="M148.67,56.36c-.32.18-.86.34-1.44.34-1.15,0-1.66-.79-1.66-1.76,0-1.31.97-2.8,2.38-2.8.83,0,1.28.5,1.28,1.13,0,1.14-1.29,1.44-2.9,1.41-.04.19,0,.59.09.83.17.4.52.59.97.59.51,0,.9-.15,1.17-.3l.11.56ZM147.84,52.73c-.71,0-1.24.69-1.43,1.38,1.18.02,2.1-.14,2.1-.83,0-.35-.27-.55-.67-.55Z"/><path class="cls-14" d="M149.61,56.6l.53-2.81c.1-.57.17-1.14.22-1.55h.66c-.04.31-.07.61-.12.95h.03c.28-.59.75-1.04,1.33-1.04.07,0,.15,0,.22.02l-.14.74c-.05,0-.13-.02-.21-.02-.65,0-1.22.78-1.41,1.8l-.36,1.92h-.74Z"/><path class="cls-14" d="M152.47,56.6l.58-3.09c.1-.49.16-.91.21-1.27h.67l-.11.86h.02c.39-.61.98-.95,1.61-.95.52,0,1.11.3,1.11,1.21,0,.2-.04.47-.08.7l-.49,2.55h-.74l.48-2.52c.03-.17.05-.37.05-.56,0-.43-.17-.76-.68-.76s-1.29.64-1.49,1.72l-.4,2.12h-.74Z"/><path class="cls-14" d="M160.16,56.6c0-.26.04-.68.1-1.13h-.02c-.47.91-1.07,1.22-1.69,1.22-.77,0-1.25-.61-1.25-1.44,0-1.52,1.12-3.12,3.02-3.12.42,0,.87.07,1.18.16l-.45,2.28c-.14.76-.2,1.53-.18,2.02h-.7ZM160.64,52.8c-.1-.04-.26-.06-.51-.06-1.13,0-2.06,1.17-2.06,2.39,0,.49.17.96.75.96.62,0,1.36-.81,1.58-1.97l.25-1.31Z"/><path class="cls-14" d="M161.98,56.6l1.22-6.39h.75l-1.22,6.39h-.75Z"/><path class="cls-14" d="M164.03,56.6l.84-4.36h.74l-.83,4.36h-.75ZM165,51.04c0-.29.22-.5.49-.5s.45.2.45.47c0,.3-.22.5-.51.5-.26,0-.42-.2-.42-.47Z"/><path class="cls-14" d="M165.73,56.14l2.12-2.36c.37-.41.61-.63.91-.9v-.03h-2.23l.13-.61h3.12l-.1.5-2.08,2.32c-.4.42-.63.65-.9.9v.03s2.41,0,2.41,0l-.13.61h-3.33l.08-.46Z"/><path class="cls-14" d="M172.92,56.36c-.32.18-.86.34-1.44.34-1.15,0-1.66-.79-1.66-1.76,0-1.31.97-2.8,2.38-2.8.83,0,1.28.5,1.28,1.13,0,1.14-1.29,1.44-2.9,1.41-.04.19,0,.59.09.83.17.4.52.59.97.59.51,0,.9-.15,1.17-.3l.11.56ZM172.09,52.73c-.71,0-1.24.69-1.43,1.38,1.18.02,2.1-.14,2.1-.83,0-.35-.27-.55-.67-.55Z"/><path class="cls-14" d="M178.48,50.21l-.95,5.01c-.08.46-.15.96-.18,1.39h-.68l.12-.86h-.02c-.4.62-.95.96-1.57.96-.85,0-1.3-.69-1.3-1.58,0-1.55,1.15-2.97,2.69-2.97.28,0,.58.06.77.15l.39-2.09h.74ZM177.23,52.93c-.14-.11-.4-.19-.71-.19-1.04,0-1.85,1.12-1.85,2.28,0,.52.18,1.07.82,1.07.58,0,1.27-.66,1.46-1.64l.29-1.52Z"/><path class="cls-14" d="M183.11,56.6c0-.26.04-.68.1-1.13h-.02c-.47.91-1.07,1.22-1.69,1.22-.77,0-1.25-.61-1.25-1.44,0-1.52,1.12-3.12,3.02-3.12.42,0,.87.07,1.18.16l-.45,2.28c-.14.76-.2,1.53-.18,2.02h-.7ZM183.59,52.8c-.1-.04-.26-.06-.51-.06-1.13,0-2.06,1.17-2.06,2.39,0,.49.17.96.75.96.62,0,1.36-.81,1.58-1.97l.25-1.31Z"/><path class="cls-14" d="M184.93,56.6l.53-2.81c.1-.57.17-1.14.22-1.55h.66c-.04.31-.07.61-.12.95h.03c.28-.59.75-1.04,1.33-1.04.07,0,.15,0,.22.02l-.14.74c-.05,0-.13-.02-.21-.02-.65,0-1.22.78-1.41,1.8l-.36,1.92h-.74Z"/><path class="cls-14" d="M189.94,51.2l-.2,1.04h1.04l-.12.59h-1.04l-.4,2.12c-.05.24-.09.47-.09.69,0,.26.13.42.41.42.13,0,.25,0,.35-.04l-.04.58c-.13.05-.36.08-.58.08-.66,0-.92-.4-.92-.85,0-.25.04-.5.1-.81l.42-2.21h-.62l.11-.59h.62l.15-.81.78-.23Z"/><path class="cls-14" d="M190.83,56.6l.84-4.36h.74l-.83,4.36h-.75ZM191.8,51.04c0-.29.23-.5.49-.5s.45.2.45.47c0,.3-.22.5-.51.5-.26,0-.42-.2-.42-.47Z"/><path class="cls-14" d="M192.99,56.6l.72-3.77h-.58l.12-.59h.58l.04-.23c.11-.6.32-1.16.71-1.51.28-.25.66-.39,1.04-.39.3,0,.5.05.6.12l-.16.59c-.12-.05-.27-.08-.44-.08-.59,0-.88.58-1.01,1.3l-.04.21h.96l-.11.59h-.97l-.71,3.77h-.75Z"/><path class="cls-14" d="M198.26,56.6c0-.26.04-.68.1-1.13h-.02c-.47.91-1.07,1.22-1.69,1.22-.77,0-1.25-.61-1.25-1.44,0-1.52,1.12-3.12,3.02-3.12.42,0,.87.07,1.18.16l-.45,2.28c-.14.76-.2,1.53-.18,2.02h-.7ZM198.75,52.8c-.1-.04-.26-.06-.51-.06-1.13,0-2.06,1.17-2.06,2.39,0,.49.17.96.75.96.62,0,1.36-.81,1.58-1.97l.25-1.31Z"/><path class="cls-14" d="M203.07,56.42c-.22.12-.67.27-1.26.27-1.13,0-1.67-.76-1.67-1.68,0-1.49,1.1-2.85,2.67-2.85.4,0,.77.12.91.19l-.22.59c-.17-.08-.41-.16-.74-.16-1.13,0-1.85,1.12-1.85,2.14,0,.7.37,1.16,1.08,1.16.45,0,.78-.14,1.01-.24l.07.58Z"/><path class="cls-14" d="M205.86,51.2l-.2,1.04h1.04l-.12.59h-1.04l-.4,2.12c-.05.24-.09.47-.09.69,0,.26.13.42.41.42.14,0,.25,0,.35-.04l-.04.58c-.13.05-.36.08-.58.08-.66,0-.92-.4-.92-.85,0-.25.04-.5.1-.81l.42-2.21h-.62l.11-.59h.62l.15-.81.78-.23Z"/><path class="cls-14" d="M206.79,55.85c.21.13.58.27.94.27.5,0,.83-.32.83-.71,0-.34-.15-.55-.61-.8-.5-.28-.78-.67-.78-1.12,0-.76.66-1.34,1.58-1.34.4,0,.75.11.91.22l-.21.57c-.15-.09-.43-.2-.76-.2-.45,0-.77.28-.77.66,0,.31.21.51.6.73.49.27.81.66.81,1.14,0,.92-.74,1.43-1.66,1.43-.47,0-.89-.14-1.09-.3l.22-.55Z"/><path class="cls-14" d="M30.18,156.46v1.19h.98v1.01h-.98v1.59c0,.53.14.77.54.77.19,0,.28,0,.41-.04v1.04c-.16.06-.5.12-.87.12-.44,0-.81-.15-1.04-.38-.25-.26-.38-.68-.38-1.31v-1.8h-.59v-1.01h.59v-.82l1.34-.37Z"/><path class="cls-14" d="M32.96,160.28c.04.57.6.84,1.24.84.47,0,.85-.06,1.22-.19l.18.93c-.45.19-1,.28-1.59.28-1.49,0-2.35-.86-2.35-2.24,0-1.12.69-2.35,2.22-2.35,1.42,0,1.96,1.11,1.96,2.2,0,.23-.03.44-.04.54h-2.84ZM34.57,159.35c0-.33-.14-.89-.77-.89-.58,0-.81.53-.85.89h1.62Z"/><path class="cls-14" d="M39.96,161.93c-.24.12-.7.21-1.22.21-1.42,0-2.33-.87-2.33-2.25,0-1.29.88-2.34,2.52-2.34.36,0,.76.06,1.04.17l-.22,1.02c-.16-.07-.41-.14-.77-.14-.72,0-1.19.51-1.18,1.23,0,.8.54,1.23,1.21,1.23.32,0,.58-.05.78-.14l.16,1.01Z"/><path class="cls-14" d="M40.72,155.66h1.37v2.52h.02c.14-.2.32-.35.54-.46.21-.11.46-.17.71-.17.87,0,1.54.6,1.54,1.94v2.57h-1.37v-2.42c0-.58-.2-.97-.71-.97-.36,0-.59.23-.68.49-.04.08-.04.2-.04.3v2.61h-1.37v-6.39Z"/><path class="cls-14" d="M45.99,159.05c0-.55-.02-1.01-.04-1.4h1.19l.06.61h.03c.18-.29.62-.71,1.36-.71.9,0,1.58.6,1.58,1.9v2.6h-1.37v-2.44c0-.57-.2-.95-.69-.95-.38,0-.6.26-.7.51-.04.09-.04.22-.04.34v2.54h-1.37v-3Z"/><path class="cls-14" d="M52.68,156.42c0,.38-.28.68-.74.68-.43,0-.71-.31-.71-.68s.29-.68.73-.68.71.3.72.68ZM51.27,162.05v-4.4h1.37v4.4h-1.37Z"/><path class="cls-14" d="M57.04,161.93c-.24.12-.7.21-1.22.21-1.42,0-2.33-.87-2.33-2.25,0-1.29.88-2.34,2.52-2.34.36,0,.76.06,1.04.17l-.22,1.02c-.16-.07-.4-.14-.77-.14-.72,0-1.19.51-1.18,1.23,0,.8.54,1.23,1.21,1.23.32,0,.58-.05.78-.14l.16,1.01Z"/><path class="cls-14" d="M61.49,160.99c0,.41.02.82.07,1.06h-1.23l-.08-.44h-.03c-.29.35-.74.54-1.26.54-.89,0-1.42-.65-1.42-1.35,0-1.14,1.03-1.68,2.58-1.68v-.05c0-.24-.13-.58-.8-.58-.45,0-.93.15-1.22.33l-.25-.88c.31-.17.91-.4,1.71-.4,1.47,0,1.93.86,1.93,1.91v1.54ZM60.17,159.97c-.72,0-1.28.17-1.28.69,0,.35.23.52.54.52.33,0,.62-.23.71-.5.02-.07.03-.15.03-.23v-.48Z"/><path class="cls-14" d="M62.58,155.66h1.37v6.39h-1.37v-6.39Z"/><path class="cls-14" d="M71.14,155.66v5.08c0,.5.02,1.02.04,1.31h-1.22l-.05-.64h-.03c-.27.49-.81.74-1.38.74-1.04,0-1.88-.89-1.88-2.26,0-1.49.92-2.35,1.97-2.35.55,0,.96.2,1.16.5h.02v-2.38h1.37ZM69.77,159.51c0-.07,0-.17-.02-.25-.08-.36-.38-.67-.8-.67-.63,0-.95.56-.95,1.25,0,.75.37,1.22.94,1.22.4,0,.72-.27.8-.66.02-.1.03-.21.03-.31v-.58Z"/><path class="cls-14" d="M73.29,160.28c.04.57.6.84,1.24.84.47,0,.85-.06,1.22-.19l.18.93c-.45.19-1,.28-1.59.28-1.49,0-2.35-.86-2.35-2.24,0-1.12.69-2.35,2.22-2.35,1.42,0,1.96,1.11,1.96,2.2,0,.23-.03.44-.04.54h-2.84ZM74.9,159.35c0-.33-.14-.89-.77-.89-.58,0-.81.53-.85.89h1.62Z"/><path class="cls-14" d="M76.99,155.66h1.37v2.51h.02c.26-.38.72-.62,1.33-.62,1.05,0,1.82.87,1.81,2.22,0,1.58-1,2.38-2.01,2.38-.51,0-1.02-.19-1.32-.71h-.02l-.05.61h-1.16c.02-.29.04-.82.04-1.31v-5.08ZM78.36,160.17c0,.09,0,.17.03.24.09.36.41.65.8.65.59,0,.95-.45.95-1.24,0-.68-.31-1.22-.95-1.22-.37,0-.71.28-.8.68-.02.08-.03.16-.03.25v.65Z"/><path class="cls-14" d="M83.9,156.46v1.19h.98v1.01h-.98v1.59c0,.53.14.77.54.77.19,0,.28,0,.41-.04v1.04c-.16.06-.5.12-.87.12-.44,0-.81-.15-1.04-.38-.25-.26-.38-.68-.38-1.31v-1.8h-.59v-1.01h.59v-.82l1.34-.37Z"/><path class="cls-14" d="M26.64,173c0,.38.02.75.06,1.04h-.71l-.06-.55h-.03c-.24.34-.71.65-1.33.65-.88,0-1.33-.62-1.33-1.25,0-1.05.94-1.63,2.62-1.62v-.09c0-.35-.1-1.01-.99-1-.41,0-.84.12-1.14.32l-.18-.53c.36-.23.89-.38,1.44-.38,1.33,0,1.66.91,1.66,1.77v1.63ZM25.88,171.82c-.86-.02-1.85.13-1.85.98,0,.52.34.76.74.76.58,0,.95-.36,1.07-.73.03-.09.04-.18.04-.25v-.76Z"/><path class="cls-14" d="M27.92,171.05c0-.51,0-.95-.04-1.36h.69l.04.86h.03c.2-.58.68-.95,1.22-.95.08,0,.14,0,.22.02v.75c-.08-.02-.16-.02-.27-.02-.56,0-.95.41-1.06,1.01-.02.11-.03.24-.03.37v2.32h-.79v-3Z"/><path class="cls-14" d="M33.88,173.89c-.21.1-.67.25-1.25.25-1.31,0-2.17-.89-2.17-2.22s.92-2.32,2.34-2.32c.47,0,.88.12,1.1.23l-.18.6c-.19-.1-.49-.21-.92-.21-1,0-1.54.75-1.54,1.65,0,1.01.65,1.63,1.51,1.63.45,0,.75-.11.97-.21l.14.59Z"/><path class="cls-14" d="M34.81,167.66h.79v2.73h.02c.13-.23.32-.43.57-.57.23-.13.51-.22.81-.22.59,0,1.52.36,1.52,1.85v2.59h-.79v-2.5c0-.7-.26-1.29-1.01-1.29-.51,0-.91.36-1.06.78-.04.12-.05.23-.05.38v2.63h-.79v-6.39Z"/><path class="cls-14" d="M40.68,168.47c0,.27-.19.49-.5.49-.29,0-.48-.22-.48-.49s.2-.5.5-.5.49.22.49.5ZM39.8,174.05v-4.36h.79v4.36h-.79Z"/><path class="cls-14" d="M42.86,168.65v1.04h1.13v.6h-1.13v2.35c0,.54.15.85.59.85.22,0,.34-.02.46-.05l.04.6c-.15.05-.4.11-.7.11-.37,0-.67-.13-.85-.33-.22-.24-.31-.63-.31-1.14v-2.38h-.68v-.6h.68v-.81l.77-.23Z"/><path class="cls-14" d="M45.27,172.01c.02,1.07.69,1.51,1.49,1.51.57,0,.92-.1,1.21-.23l.14.57c-.28.13-.77.28-1.46.28-1.34,0-2.14-.89-2.14-2.21s.77-2.34,2.04-2.34c1.43,0,1.8,1.24,1.8,2.04,0,.16,0,.28-.03.37h-3.06ZM47.59,171.45c0-.5-.21-1.28-1.1-1.28-.81,0-1.15.73-1.22,1.28h2.31Z"/><path class="cls-14" d="M52.45,173.89c-.21.1-.67.25-1.25.25-1.31,0-2.17-.89-2.17-2.22s.92-2.32,2.34-2.32c.47,0,.88.12,1.1.23l-.18.6c-.19-.1-.49-.21-.92-.21-1,0-1.54.75-1.54,1.65,0,1.01.65,1.63,1.51,1.63.45,0,.75-.11.97-.21l.14.59Z"/><path class="cls-14" d="M54.44,168.65v1.04h1.13v.6h-1.13v2.35c0,.54.15.85.59.85.22,0,.34-.02.46-.05l.04.6c-.15.05-.4.11-.7.11-.37,0-.67-.13-.85-.33-.22-.24-.31-.63-.31-1.14v-2.38h-.68v-.6h.68v-.81l.77-.23Z"/><path class="cls-14" d="M60.11,172.85c0,.46,0,.85.04,1.2h-.7l-.04-.71h-.02c-.2.35-.67.81-1.44.81-.68,0-1.5-.39-1.5-1.91v-2.55h.79v2.4c0,.83.26,1.4.97,1.4.53,0,.9-.37,1.04-.73.04-.11.07-.25.07-.4v-2.67h.79v3.16Z"/><path class="cls-14" d="M61.43,171.05c0-.51,0-.95-.04-1.36h.69l.04.86h.03c.2-.58.68-.95,1.22-.95.08,0,.14,0,.22.02v.75c-.08-.02-.16-.02-.27-.02-.56,0-.95.41-1.06,1.01-.02.11-.03.24-.03.37v2.32h-.79v-3Z"/><path class="cls-14" d="M64.72,172.01c.02,1.07.69,1.51,1.49,1.51.57,0,.92-.1,1.21-.23l.14.57c-.28.13-.77.28-1.46.28-1.34,0-2.14-.89-2.14-2.21s.77-2.34,2.04-2.34c1.43,0,1.8,1.24,1.8,2.04,0,.16,0,.28-.03.37h-3.06ZM67.04,171.45c0-.5-.21-1.28-1.1-1.28-.81,0-1.15.73-1.22,1.28h2.31Z"/><path class="cls-14" d="M68.17,175.16c.2-.54.44-1.5.54-2.16l.88-.09c-.22.77-.61,1.76-.86,2.19l-.56.06Z"/><path class="cls-14" d="M75.56,173.89c-.21.1-.67.25-1.25.25-1.31,0-2.17-.89-2.17-2.22s.92-2.32,2.34-2.32c.47,0,.88.12,1.1.23l-.18.6c-.19-.1-.49-.21-.92-.21-1,0-1.54.75-1.54,1.65,0,1.01.65,1.63,1.51,1.63.45,0,.75-.11.97-.21l.14.59Z"/><path class="cls-14" d="M80.37,171.83c0,1.61-1.13,2.31-2.17,2.31-1.17,0-2.09-.86-2.09-2.24,0-1.45.96-2.3,2.16-2.3s2.1.91,2.1,2.23ZM76.92,171.88c0,.95.54,1.67,1.31,1.67s1.32-.71,1.32-1.69c0-.74-.37-1.67-1.31-1.67s-1.33.86-1.33,1.68Z"/><path class="cls-14" d="M85.12,167.66v5.27c0,.39.02.83.04,1.13h-.7l-.04-.76h-.03c-.23.49-.76.86-1.47.86-1.05,0-1.87-.89-1.87-2.21,0-1.45.9-2.33,1.95-2.33.67,0,1.12.31,1.31.66h.02v-2.6h.78ZM84.34,171.46c0-.1,0-.23-.04-.33-.12-.5-.55-.91-1.14-.91-.82,0-1.31.72-1.31,1.67,0,.88.44,1.61,1.29,1.61.53,0,1.02-.36,1.16-.95.03-.11.04-.22.04-.34v-.76Z"/><path class="cls-14" d="M86.89,172.01c.02,1.07.69,1.51,1.49,1.51.57,0,.92-.1,1.21-.23l.14.57c-.28.13-.77.28-1.46.28-1.34,0-2.14-.89-2.14-2.21s.77-2.34,2.04-2.34c1.43,0,1.8,1.24,1.8,2.04,0,.16,0,.28-.03.37h-3.06ZM89.21,171.45c0-.5-.21-1.28-1.1-1.28-.81,0-1.15.73-1.22,1.28h2.31Z"/><path class="cls-14" d="M25.11,183.38h-.02c-.24.42-.72.77-1.42.77-1.02,0-1.85-.87-1.85-2.2,0-1.64,1.05-2.35,1.97-2.35.68,0,1.13.33,1.34.75h.02l.03-.66h.75c-.02.36-.04.75-.04,1.2v4.94h-.78v-2.45ZM25.11,181.45c0-.11,0-.23-.04-.32-.13-.49-.54-.9-1.13-.9-.82,0-1.31.69-1.31,1.67,0,.87.41,1.62,1.29,1.62.51,0,.95-.31,1.13-.85.04-.12.06-.27.06-.39v-.82Z"/><path class="cls-14" d="M30.85,182.85c0,.46,0,.85.04,1.2h-.7l-.04-.71h-.02c-.2.35-.67.81-1.44.81-.68,0-1.5-.39-1.5-1.91v-2.55h.79v2.4c0,.83.26,1.4.97,1.4.53,0,.9-.37,1.04-.73.04-.11.07-.25.07-.4v-2.67h.79v3.16Z"/><path class="cls-14" d="M35.22,183c0,.38.02.75.06,1.04h-.71l-.06-.55h-.03c-.24.34-.71.65-1.33.65-.88,0-1.33-.62-1.33-1.25,0-1.05.94-1.63,2.62-1.62v-.09c0-.35-.1-1.01-.99-1-.41,0-.84.12-1.14.32l-.18-.53c.36-.23.89-.38,1.44-.38,1.33,0,1.66.91,1.66,1.77v1.63ZM34.46,181.82c-.86-.02-1.85.13-1.85.98,0,.52.34.76.74.76.58,0,.95-.36,1.07-.73.03-.09.04-.18.04-.25v-.76Z"/><path class="cls-14" d="M36.5,177.66h.79v6.39h-.79v-6.39Z"/><path class="cls-14" d="M39.51,178.47c0,.27-.19.49-.5.49-.29,0-.48-.22-.48-.49s.2-.5.5-.5.49.22.49.5ZM38.63,184.05v-4.36h.79v4.36h-.79Z"/><path class="cls-14" d="M41.69,178.65v1.04h1.13v.6h-1.13v2.35c0,.54.15.85.59.85.22,0,.34-.02.46-.05l.04.6c-.15.05-.4.11-.7.11-.37,0-.67-.13-.85-.33-.22-.24-.31-.63-.31-1.14v-2.38h-.68v-.6h.68v-.81l.77-.23Z"/><path class="cls-14" d="M44.08,179.69l.95,2.57c.11.29.22.63.29.89h.02c.08-.26.17-.59.28-.91l.86-2.56h.84l-1.19,3.11c-.57,1.49-.95,2.25-1.49,2.73-.4.33-.77.47-.97.5l-.2-.66c.2-.06.46-.19.69-.39.22-.17.48-.48.67-.88.04-.08.06-.14.06-.19s-.02-.11-.06-.21l-1.6-4.02h.86Z"/><path class="cls-14" d="M47.17,185.16c.2-.54.44-1.5.54-2.16l.88-.09c-.22.77-.61,1.76-.86,2.19l-.56.06Z"/><path class="cls-14" d="M55.39,181.83c0,1.61-1.13,2.31-2.17,2.31-1.17,0-2.09-.86-2.09-2.24,0-1.45.96-2.3,2.16-2.3s2.1.91,2.1,2.23ZM51.95,181.88c0,.95.54,1.67,1.31,1.67s1.32-.71,1.32-1.69c0-.74-.37-1.67-1.31-1.67s-1.33.86-1.33,1.68Z"/><path class="cls-14" d="M56.39,181.11c0-.56-.02-1.01-.04-1.42h.7l.04.75h.02c.32-.53.84-.84,1.55-.84,1.06,0,1.85.89,1.85,2.21,0,1.57-.96,2.34-1.99,2.34-.58,0-1.08-.25-1.34-.68h-.02v2.37h-.78v-4.72ZM57.17,182.27c0,.12,0,.23.04.32.14.55.62.93,1.19.93.84,0,1.32-.68,1.32-1.68,0-.86-.46-1.61-1.3-1.61-.54,0-1.05.38-1.2.97-.03.1-.05.22-.05.31v.76Z"/><path class="cls-14" d="M62.47,178.65v1.04h1.13v.6h-1.13v2.35c0,.54.15.85.59.85.22,0,.34-.02.46-.05l.04.6c-.15.05-.4.11-.7.11-.37,0-.67-.13-.85-.33-.22-.24-.31-.63-.31-1.14v-2.38h-.68v-.6h.68v-.81l.77-.23Z"/><path class="cls-14" d="M65.37,178.47c0,.27-.19.49-.5.49-.29,0-.48-.22-.48-.49s.2-.5.5-.5.49.22.49.5ZM64.49,184.05v-4.36h.79v4.36h-.79Z"/><path class="cls-14" d="M70.54,181.83c0,1.61-1.13,2.31-2.17,2.31-1.17,0-2.09-.86-2.09-2.24,0-1.45.96-2.3,2.16-2.3s2.1.91,2.1,2.23ZM67.09,181.88c0,.95.54,1.67,1.31,1.67s1.32-.71,1.32-1.69c0-.74-.37-1.67-1.31-1.67s-1.33.86-1.33,1.68Z"/><path class="cls-14" d="M71.54,180.87c0-.46,0-.82-.04-1.18h.7l.04.72h.02c.22-.4.72-.81,1.44-.81.6,0,1.54.36,1.54,1.85v2.59h-.79v-2.51c0-.7-.26-1.29-1.01-1.29-.51,0-.92.37-1.06.81-.04.1-.05.23-.05.37v2.62h-.79v-3.18Z"/><path class="cls-14" d="M79.59,183c0,.38.02.75.06,1.04h-.71l-.06-.55h-.03c-.24.34-.71.65-1.33.65-.88,0-1.33-.62-1.33-1.25,0-1.05.94-1.63,2.62-1.62v-.09c0-.35-.1-1.01-.99-1-.41,0-.84.12-1.14.32l-.18-.53c.36-.23.89-.38,1.44-.38,1.33,0,1.66.91,1.66,1.77v1.63ZM78.83,181.82c-.86-.02-1.85.13-1.85.98,0,.52.34.76.74.76.58,0,.95-.36,1.07-.73.03-.09.04-.18.04-.25v-.76Z"/><path class="cls-14" d="M80.87,177.66h.79v6.39h-.79v-6.39Z"/><path class="cls-14" d="M83.88,178.47c0,.27-.19.49-.5.49-.29,0-.48-.22-.48-.49s.2-.5.5-.5.49.22.49.5ZM82.99,184.05v-4.36h.79v4.36h-.79Z"/><path class="cls-14" d="M86.05,178.65v1.04h1.13v.6h-1.13v2.35c0,.54.15.85.59.85.22,0,.34-.02.46-.05l.04.6c-.15.05-.4.11-.7.11-.37,0-.67-.13-.85-.33-.22-.24-.31-.63-.31-1.14v-2.38h-.68v-.6h.68v-.81l.77-.23Z"/><path class="cls-14" d="M88.45,179.69l.95,2.57c.11.29.22.63.29.89h.02c.08-.26.17-.59.28-.91l.86-2.56h.84l-1.19,3.11c-.57,1.49-.95,2.25-1.49,2.73-.4.33-.77.47-.97.5l-.2-.66c.2-.06.46-.19.69-.39.22-.17.48-.48.67-.88.04-.08.06-.14.06-.19s-.02-.11-.06-.21l-1.6-4.02h.86Z"/><path class="cls-14" d="M21.66,196.05l1.22-6.39h.75l-1.22,6.39h-.75Z"/><path class="cls-14" d="M23.71,196.05l.84-4.36h.74l-.83,4.36h-.75ZM24.68,190.48c0-.29.23-.5.49-.5s.45.2.45.47c0,.3-.22.5-.51.5-.26,0-.42-.2-.42-.47Z"/><path class="cls-14" d="M26.75,191.69l.38,2.48c.06.5.13.83.13,1.07h.03c.1-.23.22-.52.47-1.02l1.32-2.54h.82l-2.42,4.36h-.73l-.76-4.36h.76Z"/><path class="cls-14" d="M32.94,195.8c-.32.18-.86.34-1.44.34-1.15,0-1.66-.79-1.66-1.76,0-1.31.97-2.8,2.38-2.8.83,0,1.28.5,1.28,1.13,0,1.14-1.29,1.44-2.9,1.41-.04.19,0,.59.09.83.17.4.52.59.97.59.51,0,.9-.15,1.17-.3l.11.56ZM32.11,192.18c-.71,0-1.24.69-1.43,1.38,1.18.02,2.1-.14,2.1-.83,0-.35-.27-.55-.67-.55Z"/><path class="cls-14" d="M33.92,195.29c.21.13.58.27.94.27.5,0,.83-.32.83-.71,0-.34-.15-.55-.61-.8-.5-.28-.78-.67-.78-1.12,0-.76.66-1.34,1.58-1.34.4,0,.75.11.91.22l-.21.57c-.15-.09-.43-.2-.76-.2-.45,0-.77.28-.77.66,0,.31.21.51.6.73.49.27.81.66.81,1.14,0,.92-.74,1.43-1.66,1.43-.47,0-.89-.14-1.09-.3l.22-.55Z"/><path class="cls-14" d="M38.87,196.05l.84-4.36h.74l-.83,4.36h-.75ZM39.84,190.48c0-.29.23-.5.49-.5s.45.2.45.47c0,.3-.22.5-.51.5-.26,0-.42-.2-.42-.47Z"/><path class="cls-14" d="M40.94,196.05l.58-3.09c.1-.49.16-.91.21-1.27h.67l-.11.86h.02c.39-.61.98-.95,1.61-.95.52,0,1.11.3,1.11,1.21,0,.2-.04.47-.08.7l-.49,2.55h-.74l.48-2.52c.03-.17.05-.37.05-.56,0-.43-.17-.76-.68-.76s-1.29.64-1.49,1.72l-.4,2.12h-.74Z"/><path class="cls-14" d="M49.3,190.65l-.2,1.04h1.04l-.12.59h-1.04l-.4,2.12c-.05.24-.09.47-.09.69,0,.26.13.42.41.42.14,0,.25,0,.35-.04l-.04.58c-.13.05-.36.08-.58.08-.66,0-.92-.4-.92-.85,0-.25.04-.5.1-.81l.42-2.21h-.62l.11-.59h.62l.15-.81.78-.23Z"/><path class="cls-14" d="M50.19,196.05l1.22-6.39h.75l-.54,2.8h.02c.37-.53.9-.86,1.56-.86.5,0,1.08.3,1.08,1.17,0,.23-.03.51-.07.73l-.49,2.56h-.75l.49-2.52c.03-.15.05-.36.05-.6,0-.4-.19-.71-.68-.71-.58,0-1.31.67-1.49,1.65l-.4,2.19h-.75Z"/><path class="cls-14" d="M58.14,195.8c-.32.18-.86.34-1.44.34-1.15,0-1.66-.79-1.66-1.76,0-1.31.97-2.8,2.38-2.8.83,0,1.28.5,1.28,1.13,0,1.14-1.29,1.44-2.9,1.41-.04.19,0,.59.09.83.17.4.52.59.97.59.51,0,.9-.15,1.17-.3l.11.56ZM57.31,192.18c-.71,0-1.24.69-1.43,1.38,1.18.02,2.1-.14,2.1-.83,0-.35-.27-.55-.67-.55Z"/><path class="cls-14" d="M60.76,195.29c.21.13.58.27.94.27.5,0,.83-.32.83-.71,0-.34-.15-.55-.61-.8-.5-.28-.78-.67-.78-1.12,0-.76.66-1.34,1.58-1.34.4,0,.75.11.91.22l-.21.57c-.15-.09-.43-.2-.76-.2-.45,0-.77.28-.77.66,0,.31.21.51.6.73.49.27.81.66.81,1.14,0,.92-.74,1.43-1.66,1.43-.47,0-.89-.14-1.09-.3l.22-.55Z"/><path class="cls-14" d="M68.25,193.4c0,1.35-.95,2.75-2.42,2.75-1.09,0-1.7-.81-1.7-1.79,0-1.44,1-2.76,2.41-2.76,1.18,0,1.71.89,1.71,1.81ZM64.9,194.33c0,.71.4,1.22,1.03,1.22.88,0,1.55-1.13,1.55-2.15,0-.5-.23-1.22-1.02-1.22-.94,0-1.56,1.14-1.56,2.14Z"/><path class="cls-14" d="M68.86,196.05l.72-3.77h-.58l.12-.59h.58l.04-.23c.11-.6.32-1.16.71-1.51.28-.25.66-.39,1.04-.39.3,0,.5.05.6.12l-.16.59c-.12-.05-.27-.08-.44-.08-.59,0-.88.58-1.01,1.3l-.04.21h.96l-.11.59h-.97l-.71,3.77h-.75Z"/><path class="cls-14" d="M73.29,190.65l-.2,1.04h1.04l-.12.59h-1.04l-.4,2.12c-.05.24-.09.47-.09.69,0,.26.13.42.41.42.14,0,.25,0,.35-.04l-.04.58c-.13.05-.36.08-.58.08-.66,0-.92-.4-.92-.85,0-.25.04-.5.1-.81l.42-2.21h-.62l.11-.59h.62l.15-.81.78-.23Z"/><path class="cls-14" d="M75.32,191.69l.15,2.45c.04.54.03.82.02,1.17h.03c.1-.28.26-.66.48-1.09l1.29-2.53h.66l.27,2.48c.04.48.07.85.07,1.13h.02c.12-.35.23-.68.41-1.11l1.18-2.51h.76l-2.15,4.36h-.69l-.29-2.37c-.04-.41-.06-.77-.06-1.16h-.02c-.18.42-.31.76-.5,1.13l-1.25,2.39h-.69l-.4-4.36h.74Z"/><path class="cls-14" d="M83.38,196.05c0-.26.04-.68.1-1.13h-.02c-.47.91-1.07,1.22-1.69,1.22-.77,0-1.25-.61-1.25-1.44,0-1.52,1.12-3.12,3.02-3.12.42,0,.87.07,1.18.16l-.45,2.28c-.14.76-.2,1.53-.18,2.02h-.7ZM83.87,192.25c-.1-.04-.26-.06-.51-.06-1.13,0-2.06,1.17-2.06,2.39,0,.49.17.96.75.96.62,0,1.36-.81,1.58-1.97l.25-1.31Z"/><path class="cls-14" d="M85.2,196.05l.53-2.81c.1-.57.17-1.14.22-1.55h.66c-.04.31-.07.61-.12.95h.03c.28-.59.75-1.04,1.33-1.04.07,0,.15,0,.22.02l-.14.74c-.05,0-.13-.02-.21-.02-.65,0-1.22.78-1.41,1.8l-.36,1.92h-.74Z"/><path class="cls-14" d="M91.14,195.8c-.32.18-.86.34-1.44.34-1.15,0-1.66-.79-1.66-1.76,0-1.31.97-2.8,2.38-2.8.83,0,1.28.5,1.28,1.13,0,1.14-1.29,1.44-2.9,1.41-.04.19,0,.59.09.83.17.4.52.59.97.59.51,0,.9-.15,1.17-.3l.11.56ZM90.31,192.18c-.71,0-1.24.69-1.43,1.38,1.18.02,2.1-.14,2.1-.83,0-.35-.27-.55-.67-.55Z"/><path class="cls-5" d="M212.99,93.16c0,.38.02.75.06,1.04h-.71l-.06-.55h-.03c-.24.34-.71.65-1.33.65-.88,0-1.33-.62-1.33-1.25,0-1.05.94-1.63,2.62-1.62v-.09c0-.35-.1-1.01-.99-1-.41,0-.84.12-1.14.32l-.18-.53c.36-.23.89-.38,1.44-.38,1.33,0,1.66.91,1.66,1.77v1.63ZM212.22,91.99c-.86-.02-1.85.13-1.85.98,0,.52.34.76.74.76.58,0,.95-.36,1.07-.73.03-.09.04-.18.04-.25v-.76Z"/><path class="cls-5" d="M214.26,91.03c0-.46-.02-.82-.04-1.18h.69l.04.71h.03c.24-.41.65-.8,1.38-.8.58,0,1.04.36,1.22.87h.02c.13-.25.32-.43.5-.57.26-.2.54-.31.95-.31.58,0,1.44.38,1.44,1.89v2.56h-.77v-2.46c0-.85-.31-1.34-.95-1.34-.46,0-.8.33-.95.71-.04.12-.06.25-.06.4v2.69h-.77v-2.61c0-.69-.31-1.19-.91-1.19-.49,0-.86.4-.98.79-.04.11-.06.25-.06.39v2.62h-.77v-3.18Z"/><path class="cls-5" d="M221.77,91.27c0-.56-.02-1.01-.04-1.42h.7l.04.75h.02c.32-.53.84-.84,1.55-.84,1.06,0,1.85.89,1.85,2.21,0,1.57-.96,2.34-1.99,2.34-.58,0-1.08-.25-1.34-.68h-.02v2.37h-.78v-4.72ZM222.55,92.44c0,.12,0,.23.04.32.14.55.62.93,1.19.93.84,0,1.32-.68,1.32-1.68,0-.86-.46-1.61-1.3-1.61-.54,0-1.05.38-1.2.97-.03.1-.05.22-.05.31v.76Z"/><path class="cls-5" d="M226.89,87.82h.79v6.39h-.79v-6.39Z"/><path class="cls-5" d="M229.9,88.63c0,.27-.19.49-.5.49-.29,0-.48-.22-.48-.49s.2-.5.5-.5.49.22.49.5ZM229.01,94.21v-4.36h.79v4.36h-.79Z"/><path class="cls-5" d="M231.2,94.21v-3.75h-.6v-.6h.6v-.24c0-1.14.68-1.89,1.9-1.89.41,0,.88.13,1.11.29l-.22.6c-.2-.14-.53-.25-.92-.25-.84,0-1.08.58-1.08,1.28v.22h2.53v4.36h-.79v-3.75h-1.74v3.75h-.78Z"/><path class="cls-5" d="M236.27,92.17c.02,1.07.69,1.51,1.49,1.51.57,0,.92-.1,1.21-.23l.14.57c-.28.13-.77.28-1.46.28-1.34,0-2.14-.89-2.14-2.21s.77-2.34,2.04-2.34c1.43,0,1.8,1.24,1.8,2.04,0,.16,0,.28-.03.37h-3.06ZM238.59,91.61c0-.5-.21-1.28-1.1-1.28-.81,0-1.15.73-1.22,1.28h2.31Z"/><path class="cls-5" d="M240.23,93.41c.24.14.66.31,1.05.31.57,0,.84-.28.84-.65s-.23-.58-.8-.79c-.79-.29-1.16-.71-1.16-1.23,0-.7.58-1.28,1.5-1.28.44,0,.83.12,1.06.27l-.19.58c-.17-.11-.49-.26-.89-.26-.47,0-.72.27-.72.59,0,.36.25.52.82.75.75.28,1.14.66,1.14,1.31,0,.77-.6,1.31-1.62,1.31-.48,0-.92-.13-1.22-.31l.19-.59Z"/><path class="cls-5" d="M245.63,90.57c0-.33.22-.57.53-.57.32,0,.53.23.53.57,0,.32-.21.56-.54.56-.31,0-.52-.24-.52-.56ZM245.63,93.75c0-.33.22-.57.53-.57.32,0,.53.23.53.57,0,.31-.21.56-.54.56-.31,0-.52-.24-.52-.56Z"/><path class="cls-5" d="M249.58,91.21c0-.51,0-.95-.04-1.36h.69l.04.86h.03c.2-.58.68-.95,1.22-.95.08,0,.14,0,.22.02v.75c-.08-.02-.16-.02-.27-.02-.56,0-.95.41-1.06,1.01-.02.11-.03.24-.03.37v2.32h-.79v-3Z"/><path class="cls-5" d="M252.87,92.17c.02,1.07.69,1.51,1.49,1.51.57,0,.92-.1,1.21-.23l.14.57c-.28.13-.77.28-1.46.28-1.34,0-2.14-.89-2.14-2.21s.77-2.34,2.04-2.34c1.43,0,1.8,1.24,1.8,2.04,0,.16,0,.28-.03.37h-3.06ZM255.2,91.61c0-.5-.21-1.28-1.1-1.28-.81,0-1.15.73-1.22,1.28h2.31Z"/><path class="cls-5" d="M256.94,91.27c0-.56-.02-1.01-.04-1.42h.7l.05.75h.02c.32-.53.84-.84,1.55-.84,1.06,0,1.85.89,1.85,2.21,0,1.57-.96,2.34-1.99,2.34-.58,0-1.08-.25-1.34-.68h-.02v2.37h-.78v-4.72ZM257.72,92.44c0,.12,0,.23.04.32.14.55.62.93,1.19.93.84,0,1.32-.68,1.32-1.68,0-.86-.46-1.61-1.3-1.61-.54,0-1.05.38-1.2.97-.03.1-.05.22-.05.31v.76Z"/><path class="cls-5" d="M265.12,93.16c0,.38.02.75.06,1.04h-.71l-.06-.55h-.03c-.24.34-.71.65-1.33.65-.88,0-1.33-.62-1.33-1.25,0-1.05.94-1.63,2.62-1.62v-.09c0-.35-.1-1.01-.99-1-.42,0-.84.12-1.14.32l-.18-.53c.36-.23.89-.38,1.44-.38,1.33,0,1.66.91,1.66,1.77v1.63ZM264.36,91.99c-.86-.02-1.85.13-1.85.98,0,.52.34.76.74.76.58,0,.95-.36,1.07-.73.03-.09.04-.18.04-.25v-.76Z"/><path class="cls-5" d="M267.28,88.63c0,.27-.19.49-.5.49-.29,0-.48-.22-.48-.49s.2-.5.5-.5.49.22.49.5ZM266.4,94.21v-4.36h.79v4.36h-.79Z"/><path class="cls-5" d="M268.51,91.21c0-.51,0-.95-.04-1.36h.69l.04.86h.03c.2-.58.68-.95,1.22-.95.08,0,.14,0,.22.02v.75c-.08-.02-.16-.02-.27-.02-.56,0-.95.41-1.06,1.01-.02.11-.03.24-.03.37v2.32h-.79v-3Z"/><path class="cls-5" d="M271.34,93.41c.24.14.66.31,1.05.31.57,0,.84-.28.84-.65s-.23-.58-.8-.79c-.79-.29-1.16-.71-1.16-1.23,0-.7.58-1.28,1.5-1.28.44,0,.83.12,1.06.27l-.19.58c-.17-.11-.49-.26-.89-.26-.47,0-.72.27-.72.59,0,.36.25.52.82.75.75.28,1.14.66,1.14,1.31,0,.77-.6,1.31-1.62,1.31-.48,0-.92-.13-1.22-.31l.19-.59Z"/><path class="cls-5" d="M133.18,168.32c0,.38.02.75.06,1.04h-.71l-.06-.55h-.03c-.24.34-.71.65-1.33.65-.88,0-1.33-.62-1.33-1.25,0-1.05.94-1.63,2.62-1.62v-.09c0-.35-.1-1.01-.99-1-.41,0-.84.12-1.14.32l-.18-.53c.36-.23.89-.38,1.44-.38,1.33,0,1.66.91,1.66,1.77v1.63ZM132.41,167.14c-.86-.02-1.85.13-1.85.98,0,.52.34.76.74.76.58,0,.95-.36,1.07-.73.03-.09.04-.18.04-.25v-.76Z"/><path class="cls-5" d="M134.45,166.19c0-.46-.02-.82-.04-1.18h.69l.04.71h.03c.24-.41.65-.8,1.38-.8.58,0,1.04.36,1.22.87h.02c.14-.25.32-.43.5-.57.26-.2.54-.31.95-.31.58,0,1.44.38,1.44,1.89v2.56h-.77v-2.46c0-.85-.31-1.34-.95-1.34-.46,0-.8.33-.95.71-.04.12-.06.25-.06.4v2.69h-.77v-2.61c0-.69-.31-1.19-.91-1.19-.49,0-.85.4-.98.79-.05.11-.06.25-.06.39v2.62h-.77v-3.18Z"/><path class="cls-5" d="M141.96,166.43c0-.56-.02-1.01-.04-1.42h.7l.04.75h.02c.32-.53.84-.84,1.55-.84,1.06,0,1.85.89,1.85,2.21,0,1.57-.96,2.34-1.99,2.34-.58,0-1.08-.25-1.34-.68h-.02v2.37h-.78v-4.72ZM142.74,167.59c0,.12,0,.23.04.32.14.55.62.93,1.19.93.84,0,1.32-.68,1.32-1.68,0-.86-.46-1.61-1.3-1.61-.54,0-1.05.38-1.2.97-.03.1-.05.22-.05.31v.76Z"/><path class="cls-5" d="M147.08,162.97h.79v6.39h-.79v-6.39Z"/><path class="cls-5" d="M150.09,163.78c0,.27-.19.49-.5.49-.29,0-.48-.22-.48-.49s.2-.5.5-.5.49.22.49.5ZM149.2,169.36v-4.36h.79v4.36h-.79Z"/><path class="cls-5" d="M151.39,169.36v-3.75h-.6v-.6h.6v-.24c0-1.14.68-1.89,1.9-1.89.41,0,.88.13,1.11.29l-.23.6c-.2-.14-.53-.25-.92-.25-.84,0-1.08.58-1.08,1.28v.22h2.53v4.36h-.79v-3.75h-1.74v3.75h-.78Z"/><path class="cls-5" d="M156.46,167.33c.02,1.07.69,1.51,1.5,1.51.57,0,.92-.1,1.21-.23l.14.57c-.28.13-.77.28-1.46.28-1.34,0-2.14-.89-2.14-2.21s.77-2.34,2.04-2.34c1.43,0,1.8,1.24,1.8,2.04,0,.16,0,.28-.03.37h-3.06ZM158.78,166.76c0-.5-.21-1.28-1.1-1.28-.81,0-1.15.73-1.21,1.28h2.31Z"/><path class="cls-5" d="M160.42,168.56c.24.14.66.31,1.05.31.57,0,.84-.28.84-.65s-.22-.58-.8-.79c-.79-.29-1.16-.71-1.16-1.23,0-.7.58-1.28,1.5-1.28.44,0,.83.12,1.06.27l-.19.58c-.17-.11-.49-.26-.89-.26-.47,0-.72.27-.72.59,0,.36.25.52.82.75.75.28,1.14.66,1.14,1.31,0,.77-.6,1.31-1.62,1.31-.48,0-.92-.13-1.22-.31l.19-.59Z"/><path class="cls-5" d="M165.82,165.73c0-.33.23-.57.53-.57.32,0,.53.23.53.57,0,.32-.21.56-.54.56-.31,0-.52-.24-.52-.56ZM165.82,168.9c0-.33.23-.57.53-.57.32,0,.53.23.53.57,0,.31-.21.56-.54.56-.31,0-.52-.24-.52-.56Z"/><path class="cls-5" d="M169.77,166.37c0-.51,0-.95-.04-1.36h.69l.04.86h.03c.2-.58.68-.95,1.21-.95.08,0,.14,0,.22.02v.75c-.08-.02-.16-.02-.27-.02-.56,0-.95.41-1.06,1.01-.02.11-.03.24-.03.37v2.32h-.79v-3Z"/><path class="cls-5" d="M173.06,167.33c.02,1.07.69,1.51,1.5,1.51.57,0,.92-.1,1.21-.23l.14.57c-.28.13-.77.28-1.46.28-1.34,0-2.14-.89-2.14-2.21s.77-2.34,2.04-2.34c1.43,0,1.8,1.24,1.8,2.04,0,.16,0,.28-.03.37h-3.06ZM175.39,166.76c0-.5-.21-1.28-1.1-1.28-.81,0-1.15.73-1.21,1.28h2.31Z"/><path class="cls-5" d="M177.13,166.43c0-.56-.02-1.01-.04-1.42h.7l.04.75h.02c.32-.53.84-.84,1.55-.84,1.06,0,1.85.89,1.85,2.21,0,1.57-.96,2.34-1.99,2.34-.58,0-1.08-.25-1.34-.68h-.02v2.37h-.78v-4.72ZM177.91,167.59c0,.12,0,.23.04.32.14.55.62.93,1.19.93.84,0,1.32-.68,1.32-1.68,0-.86-.46-1.61-1.3-1.61-.54,0-1.05.38-1.2.97-.03.1-.05.22-.05.31v.76Z"/><path class="cls-5" d="M185.31,168.32c0,.38.02.75.06,1.04h-.71l-.06-.55h-.03c-.24.34-.71.65-1.33.65-.88,0-1.33-.62-1.33-1.25,0-1.05.94-1.63,2.62-1.62v-.09c0-.35-.1-1.01-.99-1-.41,0-.84.12-1.14.32l-.18-.53c.36-.23.89-.38,1.44-.38,1.33,0,1.66.91,1.66,1.77v1.63ZM184.55,167.14c-.86-.02-1.84.13-1.84.98,0,.52.34.76.74.76.58,0,.95-.36,1.07-.73.03-.09.04-.18.04-.25v-.76Z"/><path class="cls-5" d="M187.47,163.78c0,.27-.19.49-.5.49-.29,0-.48-.22-.48-.49s.2-.5.5-.5.49.22.49.5ZM186.59,169.36v-4.36h.79v4.36h-.79Z"/><path class="cls-5" d="M188.7,166.37c0-.51,0-.95-.04-1.36h.69l.04.86h.03c.2-.58.68-.95,1.21-.95.08,0,.14,0,.22.02v.75c-.08-.02-.16-.02-.27-.02-.56,0-.95.41-1.06,1.01-.02.11-.03.24-.03.37v2.32h-.79v-3Z"/><path class="cls-5" d="M191.53,168.56c.24.14.66.31,1.05.31.57,0,.84-.28.84-.65s-.22-.58-.8-.79c-.79-.29-1.16-.71-1.16-1.23,0-.7.58-1.28,1.5-1.28.44,0,.83.12,1.06.27l-.19.58c-.17-.11-.49-.26-.89-.26-.47,0-.72.27-.72.59,0,.36.25.52.82.75.75.28,1.14.66,1.14,1.31,0,.77-.6,1.31-1.62,1.31-.48,0-.92-.13-1.22-.31l.19-.59Z"/><path class="cls-5" d="M46.27,93.16c0,.38.02.75.06,1.04h-.71l-.06-.55h-.03c-.24.34-.71.65-1.33.65-.88,0-1.33-.62-1.33-1.25,0-1.05.94-1.63,2.62-1.62v-.09c0-.35-.1-1.01-.99-1-.41,0-.84.12-1.14.32l-.18-.53c.36-.23.89-.38,1.44-.38,1.33,0,1.66.91,1.66,1.77v1.63ZM45.51,91.99c-.86-.02-1.85.13-1.85.98,0,.52.34.76.74.76.58,0,.95-.36,1.07-.73.03-.09.04-.18.04-.25v-.76Z"/><path class="cls-5" d="M47.55,91.03c0-.46-.02-.82-.04-1.18h.69l.04.71h.03c.24-.41.65-.8,1.38-.8.58,0,1.04.36,1.22.87h.02c.14-.25.32-.43.5-.57.26-.2.54-.31.95-.31.58,0,1.44.38,1.44,1.89v2.56h-.77v-2.46c0-.85-.31-1.34-.95-1.34-.46,0-.8.33-.95.71-.04.12-.06.25-.06.4v2.69h-.77v-2.61c0-.69-.31-1.19-.91-1.19-.49,0-.85.4-.98.79-.05.11-.06.25-.06.39v2.62h-.77v-3.18Z"/><path class="cls-5" d="M55.06,91.27c0-.56-.02-1.01-.04-1.42h.7l.04.75h.02c.32-.53.84-.84,1.55-.84,1.06,0,1.85.89,1.85,2.21,0,1.57-.96,2.34-1.99,2.34-.58,0-1.08-.25-1.34-.68h-.02v2.37h-.78v-4.72ZM55.84,92.44c0,.12,0,.23.04.32.14.55.62.93,1.19.93.84,0,1.32-.68,1.32-1.68,0-.86-.46-1.61-1.3-1.61-.54,0-1.05.38-1.2.97-.03.1-.05.22-.05.31v.76Z"/><path class="cls-5" d="M60.18,87.82h.79v6.39h-.79v-6.39Z"/><path class="cls-5" d="M63.18,88.63c0,.27-.19.49-.5.49-.29,0-.48-.22-.48-.49s.2-.5.5-.5.49.22.49.5ZM62.3,94.21v-4.36h.79v4.36h-.79Z"/><path class="cls-5" d="M64.49,94.21v-3.75h-.6v-.6h.6v-.24c0-1.14.68-1.89,1.9-1.89.41,0,.88.13,1.11.29l-.23.6c-.2-.14-.53-.25-.92-.25-.84,0-1.08.58-1.08,1.28v.22h2.53v4.36h-.79v-3.75h-1.74v3.75h-.78Z"/><path class="cls-5" d="M69.55,92.17c.02,1.07.69,1.51,1.49,1.51.57,0,.92-.1,1.21-.23l.14.57c-.28.13-.77.28-1.46.28-1.34,0-2.14-.89-2.14-2.21s.77-2.34,2.04-2.34c1.43,0,1.8,1.24,1.8,2.04,0,.16,0,.28-.03.37h-3.06ZM71.88,91.61c0-.5-.21-1.28-1.1-1.28-.81,0-1.15.73-1.22,1.28h2.31Z"/><path class="cls-5" d="M73.51,93.41c.24.14.66.31,1.05.31.57,0,.84-.28.84-.65s-.23-.58-.8-.79c-.79-.29-1.16-.71-1.16-1.23,0-.7.58-1.28,1.5-1.28.44,0,.83.12,1.06.27l-.19.58c-.17-.11-.49-.26-.89-.26-.47,0-.72.27-.72.59,0,.36.25.52.82.75.75.28,1.14.66,1.14,1.31,0,.77-.6,1.31-1.62,1.31-.48,0-.92-.13-1.22-.31l.19-.59Z"/><path class="cls-5" d="M78.91,90.57c0-.33.23-.57.53-.57.32,0,.53.23.53.57,0,.32-.21.56-.54.56-.31,0-.52-.24-.52-.56ZM78.91,93.75c0-.33.23-.57.53-.57.32,0,.53.23.53.57,0,.31-.21.56-.54.56-.31,0-.52-.24-.52-.56Z"/><path class="cls-5" d="M82.86,91.21c0-.51,0-.95-.04-1.36h.69l.04.86h.03c.2-.58.68-.95,1.22-.95.08,0,.14,0,.22.02v.75c-.08-.02-.16-.02-.27-.02-.56,0-.95.41-1.06,1.01-.02.11-.03.24-.03.37v2.32h-.79v-3Z"/><path class="cls-5" d="M86.16,92.17c.02,1.07.69,1.51,1.49,1.51.57,0,.92-.1,1.21-.23l.14.57c-.28.13-.77.28-1.46.28-1.34,0-2.14-.89-2.14-2.21s.77-2.34,2.04-2.34c1.43,0,1.8,1.24,1.8,2.04,0,.16,0,.28-.03.37h-3.06ZM88.48,91.61c0-.5-.21-1.28-1.1-1.28-.81,0-1.15.73-1.22,1.28h2.31Z"/><path class="cls-5" d="M90.23,91.27c0-.56-.02-1.01-.04-1.42h.7l.05.75h.02c.32-.53.84-.84,1.55-.84,1.06,0,1.85.89,1.85,2.21,0,1.57-.96,2.34-1.99,2.34-.58,0-1.08-.25-1.34-.68h-.02v2.37h-.78v-4.72ZM91.01,92.44c0,.12,0,.23.04.32.14.55.62.93,1.19.93.84,0,1.32-.68,1.32-1.68,0-.86-.46-1.61-1.3-1.61-.54,0-1.05.38-1.2.97-.03.1-.05.22-.05.31v.76Z"/><path class="cls-5" d="M98.41,93.16c0,.38.02.75.06,1.04h-.71l-.06-.55h-.03c-.24.34-.71.65-1.33.65-.88,0-1.33-.62-1.33-1.25,0-1.05.94-1.63,2.62-1.62v-.09c0-.35-.1-1.01-.99-1-.41,0-.84.12-1.14.32l-.18-.53c.36-.23.89-.38,1.44-.38,1.33,0,1.66.91,1.66,1.77v1.63ZM97.64,91.99c-.86-.02-1.85.13-1.85.98,0,.52.34.76.74.76.58,0,.95-.36,1.07-.73.03-.09.04-.18.04-.25v-.76Z"/><path class="cls-5" d="M100.57,88.63c0,.27-.19.49-.5.49-.29,0-.48-.22-.48-.49s.2-.5.5-.5.49.22.49.5ZM99.69,94.21v-4.36h.79v4.36h-.79Z"/><path class="cls-5" d="M101.79,91.21c0-.51,0-.95-.04-1.36h.69l.04.86h.03c.2-.58.68-.95,1.22-.95.08,0,.14,0,.22.02v.75c-.08-.02-.16-.02-.27-.02-.56,0-.95.41-1.06,1.01-.02.11-.03.24-.03.37v2.32h-.79v-3Z"/><path class="cls-5" d="M104.63,93.41c.24.14.66.31,1.05.31.57,0,.84-.28.84-.65s-.23-.58-.8-.79c-.79-.29-1.16-.71-1.16-1.23,0-.7.58-1.28,1.5-1.28.44,0,.83.12,1.06.27l-.19.58c-.17-.11-.49-.26-.89-.26-.47,0-.72.27-.72.59,0,.36.25.52.82.75.75.28,1.14.66,1.14,1.31,0,.77-.6,1.31-1.62,1.31-.48,0-.92-.13-1.22-.31l.19-.59Z"/><path class="cls-5" d="M130.81,116.65l-.43,1.56h-1.41l1.85-6.07h1.8l1.89,6.07h-1.49l-.47-1.56h-1.74ZM132.35,115.62l-.38-1.29c-.11-.36-.22-.81-.31-1.17h-.02c-.09.36-.18.82-.28,1.17l-.36,1.29h1.34Z"/><path class="cls-5" d="M136.68,112.14v6.07h-1.37v-6.07h1.37Z"/><path class="cls-5" d="M143.3,117.14c0,.41.02.82.07,1.06h-1.23l-.08-.44h-.03c-.29.35-.74.54-1.26.54-.89,0-1.42-.65-1.42-1.35,0-1.14,1.03-1.68,2.58-1.68v-.05c0-.24-.13-.58-.8-.58-.45,0-.93.15-1.22.33l-.25-.88c.31-.17.91-.4,1.71-.4,1.47,0,1.93.86,1.93,1.91v1.54ZM141.98,116.12c-.72,0-1.28.17-1.28.69,0,.35.23.52.54.52.33,0,.62-.23.71-.5.02-.07.03-.15.03-.23v-.48Z"/><path class="cls-5" d="M147.69,118.09c-.24.12-.7.21-1.22.21-1.42,0-2.33-.87-2.33-2.25,0-1.29.88-2.34,2.52-2.34.36,0,.76.06,1.04.17l-.22,1.02c-.16-.07-.41-.14-.77-.14-.72,0-1.19.51-1.18,1.23,0,.8.54,1.23,1.21,1.23.32,0,.58-.05.78-.14l.16,1.01Z"/><path class="cls-5" d="M151.65,118.09c-.24.12-.7.21-1.22.21-1.42,0-2.33-.87-2.33-2.25,0-1.29.88-2.34,2.52-2.34.36,0,.76.06,1.04.17l-.22,1.02c-.16-.07-.4-.14-.77-.14-.72,0-1.19.51-1.18,1.23,0,.8.54,1.23,1.21,1.23.32,0,.58-.05.78-.14l.16,1.01Z"/><path class="cls-5" d="M153.36,116.44c.04.57.6.84,1.24.84.47,0,.85-.06,1.22-.19l.18.93c-.45.19-1,.28-1.59.28-1.49,0-2.35-.86-2.35-2.24,0-1.12.69-2.35,2.22-2.35,1.42,0,1.96,1.11,1.96,2.2,0,.23-.03.44-.04.54h-2.84ZM154.98,115.5c0-.33-.14-.89-.77-.89-.58,0-.81.53-.85.89h1.62Z"/><path class="cls-5" d="M157.06,111.81h1.37v6.39h-1.37v-6.39Z"/><path class="cls-5" d="M160.59,116.44c.04.57.6.84,1.24.84.47,0,.85-.06,1.21-.19l.18.93c-.45.19-1,.28-1.59.28-1.49,0-2.35-.86-2.35-2.24,0-1.12.69-2.35,2.22-2.35,1.42,0,1.96,1.11,1.96,2.2,0,.23-.03.44-.04.54h-2.84ZM162.2,115.5c0-.33-.14-.89-.77-.89-.58,0-.81.53-.85.89h1.62Z"/><path class="cls-5" d="M164.29,115.25c0-.65,0-1.07-.04-1.45h1.17l.05.81h.04c.23-.65.76-.92,1.19-.92.13,0,.19,0,.29.03v1.29c-.11-.02-.22-.04-.37-.04-.5,0-.85.27-.94.69-.02.09-.03.2-.03.31v2.23h-1.37v-2.95Z"/><path class="cls-5" d="M171.27,117.14c0,.41.02.82.07,1.06h-1.23l-.08-.44h-.03c-.29.35-.74.54-1.26.54-.89,0-1.42-.65-1.42-1.35,0-1.14,1.03-1.68,2.58-1.68v-.05c0-.24-.13-.58-.8-.58-.45,0-.93.15-1.21.33l-.25-.88c.31-.17.91-.4,1.71-.4,1.47,0,1.93.86,1.93,1.91v1.54ZM169.95,116.12c-.72,0-1.28.17-1.28.69,0,.35.23.52.54.52.33,0,.62-.23.71-.5.02-.07.03-.15.03-.23v-.48Z"/><path class="cls-5" d="M173.82,112.61v1.19h.98v1.01h-.98v1.59c0,.53.13.77.54.77.19,0,.28,0,.41-.04v1.04c-.16.06-.5.12-.87.12-.44,0-.81-.15-1.04-.38-.25-.26-.38-.68-.38-1.31v-1.8h-.58v-1.01h.58v-.82l1.34-.37Z"/><path class="cls-5" d="M176.6,116.44c.04.57.6.84,1.24.84.47,0,.85-.06,1.22-.19l.18.93c-.45.19-1,.28-1.59.28-1.5,0-2.35-.86-2.35-2.24,0-1.12.69-2.35,2.22-2.35,1.42,0,1.96,1.11,1.96,2.2,0,.23-.03.44-.04.54h-2.84ZM178.21,115.5c0-.33-.14-.89-.77-.89-.58,0-.81.53-.85.89h1.62Z"/><path class="cls-5" d="M180.29,117.02c.25.15.77.32,1.18.32s.58-.14.58-.36-.13-.34-.64-.51c-.92-.31-1.27-.8-1.26-1.32,0-.83.7-1.45,1.79-1.45.51,0,.96.13,1.23.26l-.23.94c-.2-.11-.58-.25-.95-.25-.33,0-.52.14-.52.35s.17.32.71.51c.84.29,1.18.72,1.19,1.36,0,.83-.64,1.43-1.9,1.43-.58,0-1.09-.14-1.42-.31l.24-.97Z"/><path class="cls-5" d="M184.02,117.48c0-.5.33-.84.81-.84s.79.33.8.84c0,.48-.32.83-.82.83-.46,0-.79-.35-.79-.83Z"/><path class="cls-5" d="M186.36,117.48c0-.5.33-.84.81-.84s.79.33.8.84c0,.48-.32.83-.82.83-.46,0-.79-.35-.79-.83Z"/><path class="cls-5" d="M188.7,117.48c0-.5.33-.84.81-.84s.79.33.8.84c0,.48-.32.83-.82.83-.46,0-.79-.35-.79-.83Z"/><path class="cls-14" d="M224.11,162.13c-.24.12-.7.21-1.22.21-1.42,0-2.33-.87-2.33-2.25,0-1.29.88-2.34,2.52-2.34.36,0,.76.06,1.04.17l-.22,1.02c-.16-.07-.41-.14-.76-.14-.72,0-1.19.51-1.18,1.23,0,.8.54,1.23,1.21,1.23.32,0,.58-.05.78-.14l.16,1.01Z"/><path class="cls-14" d="M229.11,159.99c0,1.61-1.14,2.35-2.32,2.35-1.29,0-2.28-.85-2.28-2.27s.94-2.34,2.36-2.34c1.34,0,2.24.93,2.24,2.26ZM225.92,160.04c0,.76.32,1.32.9,1.32.54,0,.87-.53.87-1.33,0-.65-.25-1.31-.87-1.31s-.9.68-.9,1.32Z"/><path class="cls-14" d="M234.15,161.6c0,.85-.17,1.54-.67,1.98-.48.41-1.13.54-1.78.54-.59,0-1.19-.12-1.58-.33l.27-1.04c.28.16.76.33,1.28.33.65,0,1.14-.34,1.14-1.16v-.28h-.02c-.26.36-.68.57-1.19.57-1.09,0-1.86-.88-1.86-2.14,0-1.42.91-2.32,2-2.32.6,0,.98.26,1.21.63h.02l.04-.53h1.19c-.02.29-.04.66-.04,1.31v2.45ZM232.78,159.63c0-.08,0-.17-.03-.25-.1-.36-.36-.6-.74-.6-.5,0-.9.45-.9,1.25,0,.66.32,1.17.89,1.17.36,0,.64-.23.73-.55.04-.11.04-.25.04-.37v-.65Z"/><path class="cls-14" d="M235.25,159.25c0-.55-.02-1.01-.04-1.4h1.19l.06.61h.03c.18-.29.62-.71,1.36-.71.9,0,1.58.6,1.58,1.9v2.6h-1.37v-2.44c0-.57-.2-.95-.69-.95-.38,0-.6.26-.7.51-.04.09-.04.22-.04.34v2.54h-1.37v-3Z"/><path class="cls-14" d="M241.93,156.62c0,.38-.28.68-.74.68-.43,0-.71-.31-.71-.68s.29-.68.73-.68.71.3.72.68ZM240.52,162.24v-4.4h1.37v4.4h-1.37Z"/><path class="cls-14" d="M244.52,156.65v1.19h.98v1.01h-.98v1.59c0,.53.14.77.54.77.19,0,.28,0,.41-.04v1.04c-.16.06-.5.12-.87.12-.44,0-.81-.15-1.04-.38-.25-.26-.38-.68-.38-1.31v-1.8h-.59v-1.01h.59v-.82l1.34-.37Z"/><path class="cls-14" d="M247.7,156.62c0,.38-.28.68-.74.68-.43,0-.71-.31-.71-.68s.29-.68.73-.68.71.3.72.68ZM246.29,162.24v-4.4h1.37v4.4h-1.37Z"/><path class="cls-14" d="M249.77,157.84l.59,2.04c.11.38.18.72.25,1.07h.03c.07-.36.14-.69.24-1.07l.57-2.04h1.44l-1.64,4.4h-1.37l-1.6-4.4h1.49Z"/><path class="cls-14" d="M254.44,160.48c.04.57.6.84,1.24.84.47,0,.85-.06,1.22-.19l.18.93c-.45.19-1,.28-1.59.28-1.5,0-2.35-.86-2.35-2.24,0-1.12.69-2.35,2.22-2.35,1.42,0,1.96,1.11,1.96,2.2,0,.23-.03.44-.04.54h-2.84ZM256.05,159.54c0-.33-.14-.89-.77-.89-.58,0-.81.53-.85.89h1.62Z"/><path class="cls-14" d="M264.23,155.85v5.08c0,.5.02,1.02.04,1.31h-1.22l-.05-.64h-.03c-.27.49-.81.74-1.38.74-1.04,0-1.88-.89-1.88-2.26,0-1.49.92-2.35,1.97-2.35.55,0,.96.2,1.16.5h.02v-2.38h1.37ZM262.86,159.71c0-.07,0-.17-.02-.25-.08-.36-.38-.67-.8-.67-.63,0-.95.56-.95,1.25,0,.75.37,1.22.94,1.22.4,0,.72-.27.8-.66.02-.1.03-.21.03-.31v-.58Z"/><path class="cls-14" d="M266.38,160.48c.04.57.6.84,1.24.84.47,0,.85-.06,1.21-.19l.18.93c-.45.19-1,.28-1.59.28-1.49,0-2.35-.86-2.35-2.24,0-1.12.69-2.35,2.22-2.35,1.42,0,1.96,1.11,1.96,2.2,0,.23-.03.44-.04.54h-2.84ZM267.99,159.54c0-.33-.14-.89-.77-.89-.58,0-.81.53-.85.89h1.62Z"/><path class="cls-14" d="M270.08,155.85h1.37v2.51h.02c.26-.38.72-.62,1.33-.62,1.05,0,1.82.87,1.81,2.22,0,1.58-1,2.38-2.01,2.38-.51,0-1.02-.19-1.32-.71h-.02l-.05.61h-1.16c.02-.29.04-.82.04-1.31v-5.08ZM271.44,160.37c0,.09,0,.17.03.24.09.36.41.65.8.65.59,0,.95-.45.95-1.24,0-.68-.31-1.22-.95-1.22-.37,0-.71.28-.8.68-.02.08-.03.16-.03.25v.65Z"/><path class="cls-14" d="M276.99,156.65v1.19h.98v1.01h-.98v1.59c0,.53.14.77.54.77.19,0,.28,0,.41-.04v1.04c-.16.06-.5.12-.87.12-.44,0-.81-.15-1.04-.38-.25-.26-.38-.68-.38-1.31v-1.8h-.59v-1.01h.59v-.82l1.34-.37Z"/><path class="cls-14" d="M214.66,171.07c0-.46-.02-.82-.04-1.18h.69l.04.71h.03c.24-.41.65-.8,1.38-.8.58,0,1.04.36,1.22.87h.02c.13-.25.32-.43.5-.57.26-.2.54-.31.95-.31.58,0,1.44.38,1.44,1.89v2.56h-.77v-2.46c0-.85-.31-1.34-.95-1.34-.46,0-.8.33-.95.71-.04.12-.06.25-.06.4v2.69h-.77v-2.61c0-.69-.31-1.19-.91-1.19-.49,0-.86.4-.98.79-.04.11-.06.25-.06.39v2.62h-.77v-3.18Z"/><path class="cls-14" d="M226.11,172.03c0,1.61-1.13,2.31-2.17,2.31-1.17,0-2.09-.86-2.09-2.24,0-1.45.96-2.3,2.16-2.3s2.1.91,2.1,2.23ZM222.66,172.07c0,.95.54,1.67,1.31,1.67s1.32-.71,1.32-1.69c0-.74-.37-1.67-1.31-1.67s-1.33.86-1.33,1.68Z"/><path class="cls-14" d="M230.86,167.85v5.27c0,.39.02.83.04,1.13h-.7l-.04-.76h-.03c-.23.49-.76.86-1.47.86-1.05,0-1.87-.89-1.87-2.21,0-1.45.9-2.33,1.95-2.33.67,0,1.12.31,1.31.66h.02v-2.6h.78ZM230.08,171.66c0-.1,0-.23-.04-.33-.12-.5-.55-.91-1.14-.91-.82,0-1.31.72-1.31,1.67,0,.88.44,1.61,1.29,1.61.53,0,1.02-.36,1.16-.95.03-.11.04-.22.04-.34v-.76Z"/><path class="cls-14" d="M232.63,172.21c.02,1.07.69,1.51,1.49,1.51.57,0,.92-.1,1.21-.23l.14.57c-.28.13-.77.28-1.46.28-1.34,0-2.14-.89-2.14-2.21s.77-2.34,2.04-2.34c1.43,0,1.8,1.24,1.8,2.04,0,.16,0,.28-.03.37h-3.06ZM234.95,171.64c0-.5-.21-1.28-1.1-1.28-.81,0-1.15.73-1.22,1.28h2.31Z"/><path class="cls-14" d="M236.7,167.85h.79v6.39h-.79v-6.39Z"/><path class="cls-14" d="M238.71,173.44c.24.14.66.31,1.05.31.57,0,.84-.28.84-.65s-.23-.58-.8-.79c-.79-.29-1.16-.71-1.16-1.23,0-.7.58-1.28,1.5-1.28.44,0,.83.12,1.06.27l-.19.58c-.17-.11-.49-.26-.89-.26-.47,0-.72.27-.72.59,0,.36.25.52.82.75.75.28,1.14.66,1.14,1.31,0,.77-.6,1.31-1.62,1.31-.48,0-.92-.13-1.22-.31l.19-.59Z"/><path class="cls-14" d="M241.77,175.36c.2-.54.44-1.5.54-2.16l.88-.09c-.22.77-.61,1.76-.86,2.19l-.56.06Z"/><path class="cls-14" d="M246.06,171.25c0-.51,0-.95-.04-1.36h.69l.04.86h.03c.2-.58.68-.95,1.22-.95.08,0,.14,0,.22.02v.75c-.08-.02-.16-.02-.27-.02-.56,0-.95.41-1.06,1.01-.02.11-.03.24-.03.37v2.32h-.79v-3Z"/><path class="cls-14" d="M249.35,172.21c.02,1.07.69,1.51,1.49,1.51.57,0,.92-.1,1.21-.23l.14.57c-.28.13-.77.28-1.46.28-1.34,0-2.14-.89-2.14-2.21s.77-2.34,2.04-2.34c1.43,0,1.8,1.24,1.8,2.04,0,.16,0,.28-.03.37h-3.06ZM251.67,171.64c0-.5-.21-1.28-1.1-1.28-.81,0-1.15.73-1.22,1.28h2.31Z"/><path class="cls-14" d="M256.48,173.2c0,.38.02.75.06,1.04h-.71l-.06-.55h-.03c-.24.34-.71.65-1.33.65-.88,0-1.33-.62-1.33-1.25,0-1.05.94-1.63,2.62-1.62v-.09c0-.35-.1-1.01-.99-1-.41,0-.84.12-1.14.32l-.18-.53c.36-.23.89-.38,1.44-.38,1.33,0,1.66.91,1.66,1.77v1.63ZM255.71,172.02c-.86-.02-1.85.13-1.85.98,0,.52.34.76.74.76.58,0,.95-.36,1.07-.73.03-.09.04-.18.04-.25v-.76Z"/><path class="cls-14" d="M257.65,173.44c.24.14.66.31,1.05.31.57,0,.84-.28.84-.65s-.23-.58-.8-.79c-.79-.29-1.16-.71-1.16-1.23,0-.7.58-1.28,1.5-1.28.44,0,.83.12,1.06.27l-.19.58c-.17-.11-.49-.26-.89-.26-.47,0-.72.27-.72.59,0,.36.25.52.82.75.75.28,1.14.66,1.14,1.31,0,.77-.6,1.31-1.62,1.31-.48,0-.92-.13-1.22-.31l.19-.59Z"/><path class="cls-14" d="M265.26,172.03c0,1.61-1.13,2.31-2.17,2.31-1.17,0-2.09-.86-2.09-2.24,0-1.45.96-2.3,2.16-2.3s2.1.91,2.1,2.23ZM261.81,172.07c0,.95.54,1.67,1.31,1.67s1.32-.71,1.32-1.69c0-.74-.37-1.67-1.31-1.67s-1.33.86-1.33,1.68Z"/><path class="cls-14" d="M266.26,171.07c0-.46,0-.82-.04-1.18h.7l.04.72h.02c.22-.4.72-.81,1.44-.81.6,0,1.54.36,1.54,1.85v2.59h-.79v-2.51c0-.7-.26-1.29-1.01-1.29-.51,0-.92.37-1.06.81-.04.1-.05.23-.05.37v2.62h-.79v-3.18Z"/><path class="cls-14" d="M272.14,168.66c0,.27-.19.49-.5.49-.29,0-.48-.22-.48-.49s.2-.5.5-.5.49.22.49.5ZM271.25,174.24v-4.36h.79v4.36h-.79Z"/><path class="cls-14" d="M273.36,171.07c0-.46,0-.82-.04-1.18h.7l.04.72h.02c.22-.4.72-.81,1.44-.81.6,0,1.54.36,1.54,1.85v2.59h-.79v-2.51c0-.7-.26-1.29-1.01-1.29-.51,0-.92.37-1.06.81-.04.1-.05.23-.05.37v2.62h-.79v-3.18Z"/><path class="cls-14" d="M282.08,173.6c0,1.01-.21,1.61-.62,2-.43.39-1.04.52-1.59.52-.52,0-1.1-.13-1.45-.36l.2-.61c.29.19.74.35,1.28.35.81,0,1.4-.42,1.4-1.53v-.48h-.02c-.23.4-.71.73-1.39.73-1.08,0-1.85-.92-1.85-2.12,0-1.48.96-2.3,1.97-2.3.76,0,1.16.39,1.36.75h.02l.03-.66h.7c-.03.31-.04.67-.04,1.19v2.53ZM281.29,171.61c0-.14,0-.25-.04-.35-.14-.47-.52-.85-1.11-.85-.76,0-1.3.64-1.3,1.65,0,.85.44,1.57,1.29,1.57.5,0,.94-.31,1.1-.81.05-.13.06-.29.06-.42v-.78Z"/><path class="cls-14" d="M282.74,175.36c.2-.54.44-1.5.54-2.16l.88-.09c-.22.77-.61,1.76-.86,2.19l-.56.06Z"/><path class="cls-14" d="M233.36,183.2c0,.38.02.75.06,1.04h-.71l-.06-.55h-.03c-.24.34-.71.65-1.33.65-.88,0-1.33-.62-1.33-1.25,0-1.05.94-1.63,2.62-1.62v-.09c0-.35-.1-1.01-.99-1-.41,0-.84.12-1.14.32l-.18-.53c.36-.23.89-.38,1.44-.38,1.33,0,1.66.91,1.66,1.77v1.63ZM232.59,182.02c-.86-.02-1.84.13-1.84.98,0,.52.34.76.74.76.58,0,.95-.36,1.07-.73.03-.09.04-.18.04-.25v-.76Z"/><path class="cls-14" d="M234.88,179.89l.58,2.21c.12.49.23.94.32,1.39h.03c.1-.44.24-.91.39-1.38l.71-2.22h.67l.68,2.18c.16.52.29.98.39,1.42h.03c.07-.44.19-.9.33-1.41l.62-2.19h.78l-1.4,4.36h-.72l-.67-2.08c-.15-.49-.28-.92-.39-1.43h-.02c-.11.52-.24.97-.4,1.44l-.7,2.07h-.72l-1.31-4.36h.81Z"/><path class="cls-14" d="M244.21,183.2c0,.38.02.75.06,1.04h-.71l-.06-.55h-.03c-.24.34-.71.65-1.33.65-.88,0-1.33-.62-1.33-1.25,0-1.05.94-1.63,2.62-1.62v-.09c0-.35-.1-1.01-.99-1-.41,0-.84.12-1.14.32l-.18-.53c.36-.23.89-.38,1.44-.38,1.33,0,1.66.91,1.66,1.77v1.63ZM243.45,182.02c-.86-.02-1.85.13-1.85.98,0,.52.34.76.74.76.58,0,.95-.36,1.07-.73.03-.09.04-.18.04-.25v-.76Z"/><path class="cls-14" d="M245.49,181.25c0-.51,0-.95-.04-1.36h.69l.04.86h.03c.2-.58.68-.95,1.21-.95.08,0,.14,0,.22.02v.75c-.08-.02-.16-.02-.27-.02-.56,0-.95.41-1.06,1.01-.02.11-.03.24-.03.37v2.32h-.79v-3Z"/><path class="cls-14" d="M248.78,182.21c.02,1.07.69,1.51,1.5,1.51.57,0,.92-.1,1.21-.23l.14.57c-.28.13-.77.28-1.46.28-1.34,0-2.14-.89-2.14-2.21s.77-2.34,2.04-2.34c1.43,0,1.8,1.24,1.8,2.04,0,.16,0,.28-.03.37h-3.06ZM251.11,181.64c0-.5-.21-1.28-1.1-1.28-.81,0-1.15.73-1.21,1.28h2.31Z"/><path class="cls-14" d="M252.85,181.07c0-.46,0-.82-.04-1.18h.7l.04.72h.02c.22-.4.72-.81,1.44-.81.6,0,1.54.36,1.54,1.85v2.59h-.79v-2.51c0-.7-.26-1.29-1.01-1.29-.51,0-.92.37-1.06.81-.04.1-.05.23-.05.37v2.62h-.79v-3.18Z"/><path class="cls-14" d="M258.29,182.21c.02,1.07.69,1.51,1.5,1.51.57,0,.92-.1,1.21-.23l.14.57c-.28.13-.77.28-1.46.28-1.34,0-2.14-.89-2.14-2.21s.77-2.34,2.04-2.34c1.43,0,1.8,1.24,1.8,2.04,0,.16,0,.28-.03.37h-3.06ZM260.61,181.64c0-.5-.21-1.28-1.1-1.28-.81,0-1.15.73-1.21,1.28h2.31Z"/><path class="cls-14" d="M262.25,183.44c.24.14.66.31,1.05.31.57,0,.84-.28.84-.65s-.22-.58-.8-.79c-.79-.29-1.16-.71-1.16-1.23,0-.7.58-1.28,1.5-1.28.44,0,.83.12,1.06.27l-.19.58c-.17-.11-.49-.26-.89-.26-.47,0-.72.27-.72.59,0,.36.25.52.82.75.75.28,1.14.66,1.14,1.31,0,.77-.6,1.31-1.62,1.31-.48,0-.92-.13-1.22-.31l.19-.59Z"/><path class="cls-14" d="M265.81,183.44c.24.14.66.31,1.05.31.57,0,.84-.28.84-.65s-.23-.58-.8-.79c-.79-.29-1.16-.71-1.16-1.23,0-.7.58-1.28,1.5-1.28.44,0,.83.12,1.06.27l-.19.58c-.17-.11-.49-.26-.89-.26-.47,0-.72.27-.72.59,0,.36.25.52.82.75.75.28,1.14.66,1.14,1.31,0,.77-.6,1.31-1.62,1.31-.48,0-.92-.13-1.22-.31l.19-.59Z"/><path class="cls-14" d="M224.44,196.24l1.21-6.39h.75l-1.21,6.39h-.75Z"/><path class="cls-14" d="M226.49,196.24l.84-4.36h.74l-.83,4.36h-.75ZM227.46,190.68c0-.29.23-.5.49-.5s.45.2.45.47c0,.3-.22.5-.51.5-.26,0-.42-.2-.42-.47Z"/><path class="cls-14" d="M229.52,191.89l.38,2.48c.06.5.13.83.13,1.07h.03c.1-.23.22-.52.47-1.02l1.32-2.54h.82l-2.42,4.36h-.73l-.76-4.36h.76Z"/><path class="cls-14" d="M235.72,196c-.32.18-.86.34-1.44.34-1.15,0-1.66-.79-1.66-1.76,0-1.31.97-2.8,2.38-2.8.83,0,1.28.5,1.28,1.13,0,1.14-1.29,1.44-2.9,1.41-.04.19,0,.59.09.83.17.4.52.59.97.59.51,0,.9-.15,1.17-.3l.11.56ZM234.89,192.37c-.71,0-1.24.69-1.43,1.38,1.18.02,2.1-.14,2.1-.83,0-.35-.27-.55-.67-.55Z"/><path class="cls-14" d="M236.7,195.49c.21.13.58.27.94.27.5,0,.83-.32.83-.71,0-.34-.15-.55-.61-.8-.5-.28-.78-.67-.78-1.12,0-.76.66-1.34,1.58-1.34.4,0,.75.11.91.22l-.21.57c-.15-.09-.43-.2-.76-.2-.45,0-.77.28-.77.66,0,.31.21.51.6.73.49.27.81.66.81,1.14,0,.92-.74,1.43-1.66,1.43-.47,0-.89-.14-1.09-.3l.22-.55Z"/><path class="cls-14" d="M241.65,196.24l.84-4.36h.74l-.83,4.36h-.75ZM242.62,190.68c0-.29.23-.5.49-.5s.45.2.45.47c0,.3-.22.5-.51.5-.26,0-.42-.2-.42-.47Z"/><path class="cls-14" d="M243.72,196.24l.58-3.09c.1-.49.16-.91.21-1.27h.67l-.11.86h.02c.39-.61.98-.95,1.61-.95.52,0,1.11.3,1.11,1.21,0,.2-.04.47-.08.7l-.49,2.55h-.74l.48-2.52c.03-.17.05-.37.05-.56,0-.43-.17-.76-.68-.76s-1.29.64-1.49,1.72l-.4,2.12h-.74Z"/><path class="cls-14" d="M249.76,198.03l.87-4.59c.1-.53.19-1.12.24-1.56h.68l-.12.83h.02c.39-.58.96-.92,1.57-.92.94,0,1.33.77,1.33,1.58,0,1.54-1.1,2.98-2.55,2.98-.46,0-.76-.1-.94-.2h-.02l-.35,1.88h-.75ZM250.99,195.51c.2.15.48.24.84.24.96,0,1.76-1.2,1.76-2.34,0-.46-.2-1.01-.84-1.01-.58,0-1.31.67-1.54,1.89l-.23,1.22Z"/><path class="cls-14" d="M258.04,196c-.32.18-.86.34-1.44.34-1.15,0-1.66-.79-1.66-1.76,0-1.31.97-2.8,2.38-2.8.83,0,1.28.5,1.28,1.13,0,1.14-1.29,1.44-2.9,1.41-.04.19,0,.59.09.83.17.4.52.59.97.59.51,0,.9-.15,1.17-.3l.11.56ZM257.22,192.37c-.71,0-1.24.69-1.43,1.38,1.18.02,2.1-.14,2.1-.83,0-.35-.27-.55-.67-.55Z"/><path class="cls-14" d="M263.16,193.6c0,1.35-.95,2.75-2.42,2.75-1.09,0-1.7-.81-1.7-1.79,0-1.44,1-2.76,2.41-2.76,1.18,0,1.71.89,1.71,1.81ZM259.82,194.52c0,.71.4,1.22,1.03,1.22.88,0,1.55-1.13,1.55-2.15,0-.5-.23-1.22-1.02-1.22-.94,0-1.56,1.14-1.56,2.14Z"/><path class="cls-14" d="M263.29,198.03l.87-4.59c.1-.53.19-1.12.24-1.56h.68l-.12.83h.02c.39-.58.96-.92,1.57-.92.94,0,1.33.77,1.33,1.58,0,1.54-1.1,2.98-2.55,2.98-.46,0-.77-.1-.94-.2h-.02l-.35,1.88h-.75ZM264.51,195.51c.2.15.48.24.84.24.96,0,1.76-1.2,1.76-2.34,0-.46-.2-1.01-.84-1.01-.59,0-1.31.67-1.54,1.89l-.22,1.22Z"/><path class="cls-14" d="M268.41,196.24l1.21-6.39h.75l-1.21,6.39h-.75Z"/><path class="cls-14" d="M273.6,196c-.32.18-.86.34-1.44.34-1.15,0-1.66-.79-1.66-1.76,0-1.31.97-2.8,2.38-2.8.83,0,1.28.5,1.28,1.13,0,1.14-1.29,1.44-2.9,1.41-.04.19,0,.59.09.83.17.4.52.59.97.59.51,0,.9-.15,1.17-.3l.11.56ZM272.78,192.37c-.71,0-1.24.69-1.43,1.38,1.18.02,2.1-.14,2.1-.83,0-.35-.27-.55-.67-.55Z"/></g></svg>